<svg width="109" height="18" viewBox="0 0 109 18" fill="none" xmlns="http://www.w3.org/2000/svg">
<path d="M9 18C13.9702 18 18 13.9702 18 9C18 4.02977 13.9702 0 9 0C4.02978 0 0 4.02977 0 9C0 13.9702 4.02978 18 9 18Z" fill="#008600"/>
<path d="M4.46023 9.89337C4.46023 8.35124 5.21023 7.55236 6.40517 7.55236C7.30517 7.55236 7.85292 7.89787 8.04843 7.99899C8.20011 7.8473 8.30124 7.60293 8.30124 7.35012C8.30124 6.90349 7.80405 6.45012 6.35629 6.45012C4.66247 6.45012 3.21472 7.64674 3.21472 9.88663C3.21472 12.1265 4.51247 13.3232 6.20461 13.3232C7.24955 13.3232 8.04843 12.9776 8.30124 12.8765V11.6293C8.04843 11.8316 7.20573 12.2276 6.40686 12.2276C5.31135 12.2276 4.46191 11.4271 4.46191 9.88494V9.89169L4.46023 9.89337ZM12.7389 9.84281C13.4889 8.94281 14.1866 7.89787 14.6838 6.54956L13.5883 6.15349C12.8889 8.04787 11.8439 9.34562 10.5984 10.3906V3.86304H9.4018V13.1866H10.5984V11.7894C11.0451 11.4439 11.4479 11.09 11.8962 10.6939L12.9917 12.5883C13.2445 13.0349 13.6406 13.2878 14.1883 13.2878C14.4833 13.2878 14.6855 13.1866 14.7361 13.1361L12.7406 9.84281H12.7389Z" fill="white"/>
<path d="M29.68 8.616C29.04 7.752 27.904 7.32 26.896 7.32C24.48 7.32 22.896 9 22.896 11.256C22.896 13.512 24.48 15.192 26.896 15.192C28.192 15.192 29.104 14.68 29.744 13.896L28.928 13.288C28.496 13.864 27.84 14.264 26.896 14.264C25.152 14.264 24.048 12.952 24.048 11.256C24.048 9.544 25.168 8.232 26.912 8.232C27.728 8.232 28.48 8.648 28.832 9.224L29.68 8.616ZM31.04 9.16V15H32.128V11.16C32.128 9.16 33.168 8.328 34.32 8.328C34.608 8.328 34.96 8.376 35.088 8.424L35.232 7.4C35.008 7.336 34.784 7.32 34.512 7.32C33.456 7.32 32.528 7.928 32.112 8.792H32.08C32.08 8.472 32.048 7.912 32.016 7.512H30.976C31.024 8.024 31.04 8.76 31.04 9.16ZM36.7324 10.68C36.8284 9.4 37.9004 8.232 39.3564 8.232C40.9084 8.232 41.7724 9.272 41.8364 10.68H36.7324ZM42.9404 11.032C42.9404 8.984 41.7084 7.32 39.3564 7.32C37.2284 7.32 35.5804 9 35.5804 11.256C35.5804 13.512 37.2284 15.192 39.4524 15.192C40.6844 15.192 41.7884 14.728 42.6684 13.608L41.8524 12.968C41.4364 13.64 40.5724 14.264 39.4524 14.264C37.9164 14.264 36.7484 13.048 36.7164 11.544H42.9244C42.9404 11.352 42.9404 11.176 42.9404 11.032ZM51.0406 13.736H51.0726V15H52.1606V2.904H51.0726V8.808H51.0406C50.4006 7.832 49.2806 7.32 48.2086 7.32C45.8726 7.32 44.3366 9.048 44.3366 11.256C44.3366 13.464 45.8726 15.192 48.2086 15.192C49.2806 15.192 50.4006 14.68 51.0406 13.736ZM45.4886 11.256C45.4886 9.592 46.5126 8.232 48.3206 8.232C50.0006 8.232 51.2006 9.544 51.2006 11.256C51.2006 12.968 50.0006 14.264 48.3206 14.264C46.5126 14.264 45.4886 12.92 45.4886 11.256ZM55.7721 7.512H54.6841V15H55.7721V7.512ZM55.9961 4.632C55.9961 4.184 55.6121 3.864 55.2281 3.864C54.8441 3.864 54.4601 4.184 54.4601 4.632C54.4601 5.08 54.8441 5.4 55.2281 5.4C55.6121 5.4 55.9961 5.08 55.9961 4.632ZM61.6441 7.512H59.5321V5.4H58.4441V7.512H56.8921V8.424H58.4441V13.096C58.4441 14.744 59.5641 15.096 60.3641 15.096C60.8601 15.096 61.2601 15.016 61.6441 14.872L61.5961 13.928C61.3081 14.072 60.9561 14.168 60.6521 14.168C59.9961 14.168 59.5321 13.912 59.5321 12.792V8.424H61.6441V7.512ZM67.6663 2.904H66.5783V15H67.6663V11.064H67.7143L71.5223 15H73.1223L68.9623 10.936L72.7383 7.512H71.1703L67.7143 10.888H67.6663V2.904ZM78.9287 10.408C76.1927 10.408 73.6487 10.616 73.6487 12.92C73.6487 14.584 75.1047 15.192 76.2407 15.192C77.4407 15.192 78.2727 14.776 78.9607 13.784H78.9927C78.9927 14.184 79.0407 14.632 79.1047 15H80.0807C80.0007 14.584 79.9527 13.896 79.9527 13.32V10.04C79.9527 8.216 78.6567 7.32 77.0407 7.32C75.7607 7.32 74.7047 7.784 74.0967 8.392L74.7047 9.112C75.2327 8.584 76.0487 8.232 76.9287 8.232C78.2247 8.232 78.9287 8.872 78.9287 10.168V10.408ZM78.9287 11.256V11.816C78.9287 13.144 78.0647 14.296 76.5287 14.296C75.6807 14.296 74.7687 13.944 74.7687 12.872C74.7687 11.448 76.8327 11.256 78.6087 11.256H78.9287ZM82.3556 9.16V15H83.4436V11.16C83.4436 9.16 84.4836 8.328 85.6356 8.328C85.9236 8.328 86.2756 8.376 86.4036 8.424L86.5476 7.4C86.3236 7.336 86.0996 7.32 85.8276 7.32C84.7716 7.32 83.8436 7.928 83.4276 8.792H83.3956C83.3956 8.472 83.3636 7.912 83.3316 7.512H82.2916C82.3396 8.024 82.3556 8.76 82.3556 9.16ZM88.7933 8.792H88.7613C88.7613 8.472 88.7293 7.912 88.6973 7.512H87.6573C87.7053 8.024 87.7213 8.76 87.7213 9.16V15H88.8093V11.16C88.8093 9.16 89.9453 8.232 90.9852 8.232C92.4413 8.232 92.7933 9.176 92.7933 10.632V15H93.8813V11.016C93.8813 9.624 94.4413 8.232 96.0093 8.232C97.4173 8.232 97.9453 9.288 97.9453 10.856V15H99.0333V10.408C99.0333 8.552 98.0893 7.32 96.1853 7.32C94.9853 7.32 94.0733 7.88 93.5613 8.904C93.0653 7.624 92.0733 7.32 91.2573 7.32C90.1853 7.32 89.2253 7.928 88.7933 8.792ZM106.166 10.408C103.43 10.408 100.886 10.616 100.886 12.92C100.886 14.584 102.342 15.192 103.478 15.192C104.678 15.192 105.51 14.776 106.198 13.784H106.23C106.23 14.184 106.278 14.632 106.342 15H107.318C107.238 14.584 107.19 13.896 107.19 13.32V10.04C107.19 8.216 105.894 7.32 104.278 7.32C102.998 7.32 101.942 7.784 101.334 8.392L101.942 9.112C102.47 8.584 103.286 8.232 104.166 8.232C105.462 8.232 106.166 8.872 106.166 10.168V10.408ZM106.166 11.256V11.816C106.166 13.144 105.302 14.296 103.766 14.296C102.918 14.296 102.006 13.944 102.006 12.872C102.006 11.448 104.07 11.256 105.846 11.256H106.166Z" fill="#6B6C72"/>
</svg>
