<svg width="24" height="24" viewBox="0 0 24 24" fill="none" xmlns="http://www.w3.org/2000/svg">
<path fill-rule="evenodd" clip-rule="evenodd" d="M12 1C5.92507 1 1 5.92458 1 12C1 18.0749 5.92507 23 12 23C18.0752 23 23 18.0749 23 12C23 5.92458 18.0752 1 12 1ZM5.97984 13.2183C7.16262 14.2606 8.39783 15.2454 9.68149 16.1673C11.7911 12.1739 14.7535 8.69506 18.3245 5.96654C19.0287 6.66647 19.6116 7.48631 20.0425 8.39219C16.6907 11.0235 13.1913 14.7939 10.9468 20.5741C9.21558 19.5481 6.69448 17.7247 4.8085 16.1325C5.15538 15.1396 5.54574 14.1669 5.97984 13.2183Z" fill="#3D3939"/>
</svg>
