<svg width="40" height="40" viewBox="0 0 40 40" fill="none" xmlns="http://www.w3.org/2000/svg">
<path fill-rule="evenodd" clip-rule="evenodd" d="M20.9491 18.7368C20.4257 18.7368 19.9997 19.1621 19.9997 19.6841C20.0063 19.9314 20.1091 20.1664 20.2864 20.3391C20.4637 20.5117 20.7013 20.6083 20.9487 20.6083C21.1961 20.6083 21.4338 20.5117 21.6111 20.3391C21.7883 20.1664 21.8912 19.9314 21.8977 19.6841C21.8977 19.1621 21.4724 18.7374 20.9491 18.7374V18.7368ZM20.9491 21.8948C20.3624 21.8946 19.7998 21.6617 19.3847 21.2473C18.9695 20.8329 18.7356 20.2707 18.7344 19.6841C18.7486 19.1061 18.9881 18.5566 19.4019 18.1529C19.8157 17.7491 20.3709 17.5231 20.9491 17.5231C21.5272 17.5231 22.0824 17.7491 22.4962 18.1529C22.91 18.5566 23.1495 19.1061 23.1637 19.6841C23.1625 20.2707 22.9286 20.8329 22.5135 21.2473C22.0983 21.6617 21.5357 21.8946 20.9491 21.8948Z" fill="#4F5661"/>
<path fill-rule="evenodd" clip-rule="evenodd" d="M30.7572 22.2107C29.3646 22.2107 28.0019 22.5794 26.7946 23.2794L23.6799 22.2434C23.6487 22.1397 23.5914 22.0458 23.5134 21.9706C23.4354 21.8955 23.3394 21.8417 23.2346 21.8144C23.1298 21.787 23.0197 21.7871 22.915 21.8146C22.8103 21.8422 22.7143 21.8961 22.6365 21.9714C22.5586 22.0467 22.5015 22.1407 22.4705 22.2445C22.4394 22.3483 22.4356 22.4582 22.4594 22.5639C22.4832 22.6695 22.5338 22.7673 22.6062 22.8478C22.6787 22.9282 22.7707 22.9887 22.8732 23.0234L23.8512 26.2721C23.1944 27.443 22.8487 28.7628 22.8472 30.1054C22.8472 34.4587 26.3952 38.0001 30.7572 38.0001C35.1186 38.0001 38.6666 34.4587 38.6666 30.1054C38.6666 25.7521 35.1186 22.2107 30.7572 22.2107Z" fill="#53C27C"/>
<path fill-rule="evenodd" clip-rule="evenodd" d="M27.7241 34.0252L26.8294 33.1319L33.7894 26.1852L34.6848 27.0786L27.7241 34.0252ZM28.5428 27.8939V27.8946V27.8939ZM28.5428 29.1579C28.2074 29.1581 27.8857 29.0251 27.6483 28.7882C27.4109 28.5513 27.2773 28.2299 27.2768 27.8946C27.2768 27.5589 27.4101 27.237 27.6475 26.9996C27.8848 26.7622 28.2067 26.6289 28.5424 26.6289C28.8781 26.6289 29.2 26.7622 29.4374 26.9996C29.6747 27.237 29.8081 27.5589 29.8081 27.8946C29.8076 28.2298 29.674 28.5511 29.4368 28.788C29.1995 29.0249 28.878 29.1579 28.5428 29.1579ZM32.9721 33.5786C32.6368 33.5787 32.3152 33.4459 32.0779 33.2091C31.8405 32.9724 31.7068 32.6511 31.7061 32.3159C31.7061 31.9802 31.8394 31.6583 32.0768 31.4209C32.3142 31.1836 32.6361 31.0502 32.9718 31.0502C33.3074 31.0502 33.6294 31.1836 33.8667 31.4209C34.1041 31.6583 34.2374 31.9802 34.2374 32.3159C34.2367 32.651 34.1031 32.9722 33.8659 33.2089C33.6287 33.4456 33.3072 33.5786 32.9721 33.5786Z" fill="white"/>
<path fill-rule="evenodd" clip-rule="evenodd" d="M1.9668 8.31585H31.7068V2.63118H1.9668V8.31585Z" fill="#D3E5EF"/>
<path fill-rule="evenodd" clip-rule="evenodd" d="M10.192 30.4213H16.52V24.1053H10.192V30.4213ZM10.192 22.842H16.52V16.5267H10.192V22.8427V22.842ZM10.192 15.2633H16.52V8.94667H10.192V15.2627V15.2633ZM17.7853 15.2633H24.1127V8.94667H17.7853V15.2627V15.2633ZM32.3387 2H1.96666C1.88359 1.99974 1.80127 2.01588 1.72445 2.04749C1.64762 2.07909 1.57778 2.12556 1.51895 2.18421C1.46011 2.24286 1.41343 2.31255 1.38158 2.38927C1.34972 2.466 1.33333 2.54826 1.33333 2.63134L1.33333 29.7893C1.33439 30.2921 1.5348 30.7739 1.89061 31.1291C2.24642 31.4843 2.72858 31.6838 3.23133 31.684H21.582C21.7494 31.684 21.91 31.6175 22.0284 31.4991C22.1468 31.3807 22.2133 31.2201 22.2133 31.0527C22.2133 30.8852 22.1468 30.7247 22.0284 30.6063C21.91 30.4879 21.7494 30.4213 21.582 30.4213H17.7853V24.1053H21.582C21.7495 24.1053 21.9102 24.0388 22.0287 23.9203C22.1471 23.8019 22.2137 23.6412 22.2137 23.4737C22.2137 23.3061 22.1471 23.1455 22.0287 23.027C21.9102 22.9086 21.7495 22.842 21.582 22.842H17.7853V16.5267H24.1127V20.948C24.1127 21.2973 24.396 21.5793 24.746 21.5793C24.829 21.5795 24.9113 21.5633 24.988 21.5317C25.0648 21.5 25.1345 21.4535 25.1933 21.3949C25.252 21.3363 25.2987 21.2666 25.3305 21.1899C25.3623 21.1132 25.3787 21.031 25.3787 20.948V16.5267H30.4407C30.5236 16.5267 30.6057 16.5103 30.6823 16.4786C30.7589 16.4469 30.8285 16.4004 30.8871 16.3418C30.9457 16.2831 30.9922 16.2135 31.0239 16.1369C31.0557 16.0603 31.072 15.9782 31.072 15.8953C31.072 15.8124 31.0557 15.7303 31.0239 15.6537C30.9922 15.5771 30.9457 15.5075 30.8871 15.4489C30.8285 15.3903 30.7589 15.3438 30.6823 15.3121C30.6057 15.2803 30.5236 15.264 30.4407 15.264H25.3787V8.94667H30.4407C30.6082 8.94667 30.7689 8.88012 30.8873 8.76166C31.0058 8.6432 31.0723 8.48253 31.0723 8.315C31.0723 8.14748 31.0058 7.98681 30.8873 7.86835C30.7689 7.74989 30.6082 7.68334 30.4407 7.68334H3.86466C3.69713 7.68334 3.53647 7.74989 3.41801 7.86835C3.29955 7.98681 3.233 8.14748 3.233 8.315C3.233 8.48253 3.29955 8.6432 3.41801 8.76166C3.53647 8.88012 3.69713 8.94667 3.86466 8.94667H8.92666V15.2627H3.86466C3.69722 15.2627 3.53664 15.3292 3.41824 15.4476C3.29984 15.566 3.23333 15.7266 3.23333 15.894C3.23333 16.0614 3.29984 16.222 3.41824 16.3404C3.53664 16.4588 3.69722 16.5253 3.86466 16.5253H8.92666V22.8413H3.86466C3.69713 22.8413 3.53647 22.9079 3.41801 23.0264C3.29955 23.1448 3.233 23.3055 3.233 23.473C3.233 23.6405 3.29955 23.8012 3.41801 23.9197C3.53647 24.0381 3.69713 24.1047 3.86466 24.1047H8.92666V30.4207H3.23133C3.06365 30.4207 2.90283 30.3541 2.7842 30.2356C2.66557 30.1171 2.59884 29.9564 2.59866 29.7887V3.26267H31.7067V21C31.7067 21.3493 31.99 21.6313 32.34 21.6313C32.423 21.6315 32.5053 21.6153 32.582 21.5837C32.6588 21.552 32.7285 21.5055 32.7873 21.4469C32.846 21.3883 32.8927 21.3186 32.9245 21.2419C32.9563 21.1652 32.9727 21.083 32.9727 21V2.63134C32.9727 2.54826 32.9563 2.466 32.9244 2.38927C32.8926 2.31255 32.8459 2.24286 32.787 2.18421C32.7282 2.12556 32.6584 2.07909 32.5815 2.04749C32.5047 2.01588 32.4224 1.99974 32.3393 2H32.3387Z" fill="#4F5661"/>
</svg>
