<svg width="40" height="40" viewBox="0 0 40 40" fill="none" xmlns="http://www.w3.org/2000/svg">
<rect x="4.66667" y="12" width="30" height="19.3333" fill="white"/>
<rect x="0.666672" y="31.3333" width="38" height="4.66667" fill="white"/>
<path fill-rule="evenodd" clip-rule="evenodd" d="M30.0775 27.3906H9.25547C8.88413 27.3906 8.58347 27.0899 8.58347 26.7179V16.3693C8.58347 15.9979 8.88413 15.6966 9.25547 15.6966H30.0775C30.4488 15.6966 30.7501 15.9979 30.7501 16.3693V26.7179C30.7501 27.0899 30.4488 27.3906 30.0775 27.3906Z" fill="#CFE6F0"/>
<path fill-rule="evenodd" clip-rule="evenodd" d="M38 34.3164C38 35.0311 37.418 35.6131 36.7033 35.6131H2.63C1.91533 35.6131 1.33333 35.0311 1.33333 34.3164V32.1964H4.62467H15.8333V33.9051C15.8333 34.2737 16.1313 34.5717 16.5 34.5717H22.8333C23.202 34.5717 23.5 34.2737 23.5 33.9051V32.1964H34.7087H38V34.3164ZM17.1667 33.2384H22.1667V32.1971H17.1667V33.2384ZM38.6667 30.8631H35.3747V21.1651C35.3747 20.7971 35.0767 20.4984 34.7087 20.4984C34.34 20.4984 34.042 20.7971 34.042 21.1651V30.8631H22.8333H16.5H5.29133V12.4051H20.0633C20.4313 12.4051 20.73 12.1071 20.73 11.7384C20.73 11.3697 20.4313 11.0717 20.0633 11.0717H4.62467C4.25667 11.0717 3.958 11.3697 3.958 11.7384V30.8631H0.666667C0.298 30.8631 0 31.1617 0 31.5297V34.3164C0 35.7671 1.18 36.9464 2.63 36.9464H36.7033C38.1533 36.9464 39.3333 35.7671 39.3333 34.3164V31.5297C39.3333 31.1617 39.0353 30.8631 38.6667 30.8631Z" fill="#4F5661"/>
<path fill-rule="evenodd" clip-rule="evenodd" d="M30.6667 2.66666C25.888 2.66666 22 6.55466 22 11.3333C22 12.8633 22.4067 14.3613 23.18 15.6853L22.0347 19.1227C21.956 19.3587 22.0147 19.6193 22.188 19.7973C22.316 19.9293 22.4887 20 22.6667 20C22.7307 20 22.7947 19.9907 22.858 19.972L26.448 18.8953C27.74 19.6187 29.192 20 30.6667 20C35.4453 20 39.3333 16.112 39.3333 11.3333C39.3333 6.55466 35.4453 2.66666 30.6667 2.66666Z" fill="#53C27C"/>
<path fill-rule="evenodd" clip-rule="evenodd" d="M35.3503 8.82093L34.3443 7.8456C34.2129 7.71826 34.0023 7.72093 33.8743 7.85226L29.4509 12.3756L27.3796 10.4243C27.3143 10.3629 27.2249 10.3349 27.1376 10.3343C27.0476 10.3376 26.9629 10.3776 26.9029 10.4449L25.9663 11.4869C25.8449 11.6216 25.8543 11.8296 25.9869 11.9529L28.9109 14.6789C28.9216 14.6896 28.9336 14.6989 28.9463 14.7076L29.2849 15.0363C29.3496 15.0989 29.4336 15.1303 29.5169 15.1303C29.6036 15.1303 29.6903 15.0963 29.7549 15.0296L35.3569 9.2936C35.4189 9.2296 35.4529 9.14426 35.4516 9.05626C35.4503 8.9676 35.4143 8.88293 35.3503 8.82093Z" fill="white"/>
</svg>
