<svg width="60" height="60" fill="none" xmlns="http://www.w3.org/2000/svg"><path fill-rule="evenodd" clip-rule="evenodd" d="M55 30c0 13.808-11.193 25-25 25S5 43.808 5 30C5 16.193 16.193 5 30 5s25 11.193 25 25z" fill="#D3E5EF"/><path fill-rule="evenodd" clip-rule="evenodd" d="M30 6C16.767 6 6 16.767 6 30s10.767 24 24 24 24-10.767 24-24S43.233 6 30 6zm0 50C15.664 56 4 44.337 4 30S15.664 4 30 4s26 11.663 26 26-11.664 26-26 26z" fill="#4F5661"/><path fill-rule="evenodd" clip-rule="evenodd" d="M30 50c-11.028 0-20-8.972-20-20 0-11.027 8.972-20 20-20s20 8.973 20 20c0 11.028-8.972 20-20 20z" fill="#fff"/><mask id="a" maskUnits="userSpaceOnUse" x="4" y="4" width="52" height="52"><path d="M4 56h52V4H4v52z" fill="#fff"/></mask><g mask="url(#a)"><path fill-rule="evenodd" clip-rule="evenodd" d="M26.869 44.868h5.359v-5.52h-5.359v5.52zm.36-15.358l.2-.2c5.079-.16 7.399-1.8 7.399-4.44v-.079c0-2.24-1.72-3.8-4.6-3.8-2.52 0-4.599 1.12-6.519 3.16l-2.999-3.2c2.319-2.639 5.319-4.439 9.638-4.439 5.599 0 9.399 3.12 9.399 8.12v.08c0 5.038-3.64 7.317-8.079 8.077l-.4 3.2h-3.239l-.8-6.479z" fill="#53C27C"/></g></svg>