<svg width="61" height="61" fill="none" xmlns="http://www.w3.org/2000/svg"><path fill-rule="evenodd" clip-rule="evenodd" d="M34.18 37h-7.162a.993.993 0 01-.704-.293A1.002 1.002 0 0127.018 35h7.161c.264 0 .517.105.704.293A1.003 1.003 0 0134.18 37z" fill="#4F5661"/><path fill-rule="evenodd" clip-rule="evenodd" d="M37.178 38c1.942-.85 3.237-3.566 5.18-2.208 1.942 1.358 5.827 2.718 10.36.68 0 0-1.296-7.472-8.418-7.472-7.122 0-7.122 9-7.122 9z" fill="#D3E5EF"/><path fill-rule="evenodd" clip-rule="evenodd" d="M46.94 10c1.992-4-1.883-6.295-5.22-6.295C38.383 3.705 38.97 1 35.036 1c-5.03 0-3.337 1.526-7.79 2.705-4.452 1.18-1.115 4.706-4.452 7.063-3.337 2.348-1.116 7.053 3.337 8.232h2.171a6.931 6.931 0 01-.398-2.274v-1.305l.02-1.59c0-.348.03-.687.073-1.021 1.976-.487 5.262-1.955 6.936-4.946 1.706 3.049 5.086 4.514 7.046 4.97.041.326.07.658.07.998l.02 2.894c0 .79-.15 1.558-.408 2.274h1.175c8.905 0 2.533-5.846 4.104-9z" fill="#F4877A"/><path fill-rule="evenodd" clip-rule="evenodd" d="M37.556 26.413c-.59 1.105-1.537 1.758-2.57 1.758-1.031 0-1.98-.653-2.57-1.758v-2.854c.895.4 1.786.621 2.57.621.786 0 1.677-.22 2.57-.62v2.853zm5.75-1.14a9.254 9.254 0 00-3.737-.782h-.02v-2.137c1.94-1.502 3.513-3.82 3.513-6.52l-.021-2.756a1.003 1.003 0 00-.295-.702.993.993 0 00-.7-.29h-.009a.991.991 0 00-.915.624 1.008 1.008 0 00-.073.384l.02 2.75c0 3.435-3.737 6.336-6.082 6.336-2.347 0-6.083-2.9-6.083-6.337l.02-2.743a1.005 1.005 0 00-.602-.932.991.991 0 00-.38-.082h-.013a.993.993 0 00-.7.288 1.003 1.003 0 00-.297.698l-.02 2.771c0 2.695 1.573 5.009 3.512 6.51v2.138h-.02a9.227 9.227 0 00-3.468.671.995.995 0 00-.641.92 1.005 1.005 0 00.614.938.99.99 0 00.77-.003 7.274 7.274 0 012.725-.526l.021.16v.225l.096.204c.917 1.935 2.587 3.09 4.466 3.09 1.878 0 3.547-1.155 4.466-3.09l.096-.204v-.385h.02c1.016 0 2.005.206 2.938.615a.992.992 0 001.331-.505 1.003 1.003 0 00-.532-1.326v-.001z" fill="#4F5661"/><path fill-rule="evenodd" clip-rule="evenodd" d="M10.084 31s6.972 0 8.965-4c0 0 .995 3 4.98 4 0 0 .996-8-6.973-8-7.968 0-6.972 8-6.972 8zm17.89 22H1.994l1.395-4.6a9.214 9.214 0 013.362-4.396 9.146 9.146 0 015.264-1.664h1.116v1.27c.876 1.85 2.4 2.78 3.924 2.78s3.049-.93 3.925-2.78v-1.27h1.116a9.146 9.146 0 015.264 1.664 9.215 9.215 0 013.362 4.396l.16.54v.01" fill="#D3E5EF"/><path fill-rule="evenodd" clip-rule="evenodd" d="M17.056 40.798c.893 0 1.91-.263 2.927-.738v3.317a4.543 4.543 0 01-.57.845v.002c-.037.041-.075.074-.11.113-.626.67-1.41 1.05-2.247 1.05-.836 0-1.62-.38-2.245-1.05-.036-.04-.074-.072-.11-.113l-.001-.002a4.53 4.53 0 01-.57-.845V40.06c1.016.474 2.033.738 2.926.738zm-6.79-9.07v-2.466c.01-3.401 2.775-6.167 6.162-6.167h1.252c3.389 0 6.155 2.768 6.163 6.17l.004 2.463c0 3.835-4.17 7.07-6.791 7.07-2.62 0-6.79-3.235-6.79-7.07zm21.571 16.928l-.178-.596a10.193 10.193 0 00-9.562-6.72h-.121v-2.496c2.129-1.635 3.863-4.166 3.863-7.118l-.004-2.466c-.01-4.502-3.67-8.165-8.155-8.165h-1.252c-4.481 0-8.14 3.66-8.154 8.164v2.47c0 2.95 1.734 5.48 3.863 7.115v2.495h-.121a10.175 10.175 0 00-5.852 1.867 10.25 10.25 0 00-3.728 4.903l-1.393 4.6a1.008 1.008 0 00.152.887.998.998 0 00.8.404h25.978a.993.993 0 00.704-.293A1.003 1.003 0 0027.973 52H3.34l.988-3.259a8.197 8.197 0 017.69-5.401h.118v.27l.002.009v.223l.095.197v.003l.002.004c.086.18.184.343.282.51.043.076.08.159.125.231.112.175.235.334.357.493.043.055.08.117.123.168.05.06.105.11.157.167 1.006 1.128 2.333 1.774 3.778 1.774 1.446 0 2.773-.646 3.779-1.774.052-.056.108-.105.157-.167.043-.051.08-.114.123-.17.122-.157.245-.316.356-.49.046-.073.084-.156.127-.231.096-.168.195-.33.28-.51l.002-.005.001-.002v-.001l.095-.197v-.502h.121c3.433 0 6.523 2.17 7.671 5.345l.14.474a.998.998 0 00.975.786.995.995 0 00.8-.404 1.006 1.006 0 00.155-.885" fill="#4F5661"/><path fill-rule="evenodd" clip-rule="evenodd" d="M60.004 60H29.893l1.393-4.6a9.208 9.208 0 013.36-4.397 9.14 9.14 0 015.262-1.664h1.117v1.276c.878 1.848 2.399 2.772 3.924 2.772 1.522 0 3.045-.924 3.922-2.772v-1.276h1.117a9.14 9.14 0 015.264 1.664 9.21 9.21 0 013.36 4.397l1.394 4.6h-.002z" fill="#F4877A"/><path fill-rule="evenodd" clip-rule="evenodd" d="M31.234 59l.987-3.259a8.23 8.23 0 012.998-3.916 8.169 8.169 0 014.69-1.486h.12v.503l.097.204c.993 2.092 2.795 3.341 4.822 3.341 2.026 0 3.828-1.25 4.822-3.34l.097-.205v-.503h.12c3.432 0 6.521 2.172 7.67 5.352L58.66 59H31.234zm13.713-11.202c.893 0 1.91-.263 2.927-.738v3.319c-.666 1.262-1.746 2.008-2.926 2.008-1.18 0-2.261-.746-2.928-2.008V47.06c1.018.474 2.036.738 2.928.738zm-6.79-9.07v-2.466c.01-3.401 2.775-6.167 6.164-6.167h1.25c3.39 0 6.154 2.768 6.164 6.17l.003 2.463c0 3.835-4.172 7.07-6.79 7.07-2.619 0-6.791-3.235-6.791-7.07zm22.8 20.981l-1.409-4.649a10.196 10.196 0 00-9.56-6.721h-.121v-2.495c2.13-1.633 3.864-4.166 3.864-7.118l-.005-2.466c-.011-4.502-3.67-8.165-8.154-8.165H44.32c-4.483 0-8.141 3.66-8.157 8.164v2.47c0 2.95 1.735 5.482 3.865 7.115v2.495h-.12c-4.269 0-8.11 2.701-9.578 6.77l-1.394 4.6a1.007 1.007 0 00.507 1.183c.138.07.291.107.447.108h30.113a.999.999 0 00.953-1.29z" fill="#4F5661"/></svg>