<svg width="60" height="60" fill="none" xmlns="http://www.w3.org/2000/svg"><path d="M55.2 13.23v29.997l-20.884 4.369a.903.903 0 00-.716.885c-.033.47-.179.927-.426 1.329-.535.86-1.51 1.382-3.174 1.382-.497 0-.9.405-.9.904 0 .5.403.904.9.904 2.274 0 3.83-.834 4.7-2.233.296-.471.506-.99.62-1.535l20.964-4.386a.903.903 0 00.716-.884V12.327c0-.5-.403-.904-.9-.904h-3.6c-.497 0-.9.405-.9.904 0 .5.403.904.9.904h2.7v-.001z" fill="#4B5E69"/><path fill-rule="evenodd" clip-rule="evenodd" d="M42.6 40.53v11.566l-1.67-1.808-1.774 1.808V41.513" fill="#F4877A"/><path fill-rule="evenodd" clip-rule="evenodd" d="M42.6 39.627c.499 0 .903.404.903.903v11.566a.902.902 0 01-1.566.612l-1.026-1.111-1.11 1.131a.902.902 0 01-1.547-.632V41.513a.903.903 0 011.805 0v8.375l.227-.232a.902.902 0 011.307.02l.105.113v-9.26c0-.498.404-.902.902-.902z" fill="#F4877A"/><path d="M44.265 27.255c-3.987.606-7.083 1.813-9.356 3.3a.905.905 0 00.304 1.641.9.9 0 00.678-.126c2.06-1.348 4.914-2.46 8.644-3.027a.904.904 0 00-.27-1.788zm-1.975 4.479c-2.728.66-5.041 1.59-6.962 2.7a.906.906 0 00.566 1.68.898.898 0 00.333-.113c1.772-1.025 3.924-1.89 6.484-2.51a.904.904 0 00-.421-1.757zm-17.2-1.178c-2.272-1.487-5.368-2.694-9.355-3.3a.903.903 0 10-.27 1.787c3.73.567 6.583 1.68 8.644 3.027a.898.898 0 001.245-.264.906.906 0 00-.263-1.25zm-2.281 2.809c-1.991-.921-4.344-1.632-7.074-2.047a.903.903 0 10-.27 1.787c2.563.39 4.753 1.052 6.59 1.902a.9.9 0 001.195-.443.905.905 0 00-.441-1.2z" fill="#4B5E69"/><path fill-rule="evenodd" clip-rule="evenodd" d="M15.6 21.697c4.5.572 9 3.283 9 3.23V18.3c-1.512-1.16-4.415-2.893-9-3.71v7.106z" fill="#D3E5EF"/><path fill-rule="evenodd" clip-rule="evenodd" d="M15.02 13.898a.903.903 0 01.738-.197c4.743.846 7.778 2.645 9.391 3.883a.9.9 0 01.353.716v6.627a.903.903 0 01-.774.894.902.902 0 01-.332-.014h-.002a.941.941 0 01-.152-.049h-.001a1.533 1.533 0 01-.098-.046 8.647 8.647 0 01-.24-.126 34.232 34.232 0 00-2.479-1.213c-1.653-.728-3.812-1.51-5.938-1.78a.903.903 0 01-.789-.896V14.59c0-.267.119-.52.323-.692zm1.482 1.793v5.23c2.098.372 4.118 1.126 5.649 1.8.59.26 1.114.51 1.546.726v-4.693c-1.364-.978-3.704-2.288-7.195-3.063zM44.4 14.59c-4.585.818-7.488 2.55-9 3.71v6.626c0 .055 4.5-2.656 9-3.23V14.59z" fill="#D3E5EF"/><path fill-rule="evenodd" clip-rule="evenodd" d="M34.851 17.585c1.613-1.238 4.648-3.038 9.391-3.883l.159.889h.902v7.105a.902.902 0 01-.788.895c-2.126.271-4.285 1.054-5.938 1.782-.822.36-1.506.703-1.987.953l-.483.254-.081.043a8.315 8.315 0 01-.171.09c-.02.009-.058.028-.1.045h-.002a.781.781 0 01-.158.05h-.002a.903.903 0 01-1.095-.883v-6.624a.9.9 0 01.353-.716zm8.647-1.894c-3.49.776-5.83 2.086-7.195 3.064v4.692c.433-.216.956-.467 1.547-.726 1.53-.674 3.55-1.428 5.648-1.8v-5.23zm-8.455 8.41l.003-.002-.003.001z" fill="#D3E5EF"/><path d="M25.3 50.767C26.17 52.167 27.725 53 30 53c.497 0 .9-.405.9-.904a.902.902 0 00-.9-.904c-1.664 0-2.639-.522-3.174-1.383a2.914 2.914 0 01-.426-1.328c0-.428-.3-.798-.716-.885L4.8 43.226V13.232h2.7c.497 0 .9-.405.9-.904 0-.5-.403-.904-.9-.904H3.9c-.497 0-.9.405-.9.904v31.635c0 .428.3.797.716.884l20.963 4.386c.096.471.288 1.001.62 1.535l.001-.001zm24.5-12.229c.497 0 .9.405.9.904 0 .5-.403.904-.9.904-5.94 0-10.807 1.315-14.684 3.5a19.776 19.776 0 00-3.387 2.376c-.316.279-.582.536-.798.764-.125.131-.202.22-.233.258-.535.66-1.598.28-1.598-.57v-32.54c0-.207.071-.41.202-.57.214-.264.624-.695 1.238-1.238 1.006-.888 2.235-1.772 3.695-2.595C38.378 7.397 43.548 6 49.8 6c.497 0 .9.405.9.904v32.538a.902.902 0 01-1.537.638.9.9 0 01-.263-.638v-.894c.297-.006.597-.01.9-.01zm-.9-30.72c-5.533.126-10.104 1.416-13.784 3.49-1.348.759-2.474 1.569-3.387 2.376-.316.278-.582.535-.798.764-.007.007-.018 10.043-.031 30.107a22.005 22.005 0 013.335-2.286c3.942-2.221 8.815-3.593 14.665-3.72V7.817v.001z" fill="#4B5E69"/><path d="M11.1 39.442a.902.902 0 01-1.537.638.901.901 0 01-.263-.638V6.904c0-.5.403-.904.9-.904 6.252 0 11.422 1.397 15.565 3.731 1.46.823 2.689 1.707 3.695 2.595.614.543 1.024.974 1.238 1.238.13.16.202.363.202.57v32.54c0 .85-1.063 1.23-1.598.57a5.223 5.223 0 00-.233-.258 12.62 12.62 0 00-.798-.764c-.913-.807-2.04-1.617-3.387-2.376-3.877-2.185-8.745-3.5-14.684-3.5a.904.904 0 010-1.808c.303 0 .603.004.9.01v.894zm14.665 2.827c1.29.727 2.4 1.503 3.335 2.286V14.48c-.247-.26-.513-.518-.83-.796-.912-.807-2.04-1.617-3.386-2.377-3.68-2.073-8.251-3.363-13.784-3.49v30.731c5.85.128 10.723 1.5 14.665 3.721z" fill="#4B5E69"/></svg>