<svg width="40" height="40" viewBox="0 0 40 40" fill="none" xmlns="http://www.w3.org/2000/svg">
<path fill-rule="evenodd" clip-rule="evenodd" d="M37.4643 5.66666V32.5674C36.425 33.0118 35.3917 33.3551 34.3638 33.6077C29.3327 34.8584 23.7407 34.0767 18.516 33.2469L17.4022 33.0665C13.0052 32.375 7.88269 31.7677 2.60089 33.2409V6.11764C2.70368 6.11764 2.80646 6.11163 2.90925 6.08096C4.09701 5.7322 5.27335 5.4983 6.43827 5.35338C8.42007 5.19764 10.5672 5.18562 12.8742 5.33595C14.2958 5.46823 15.6945 5.67268 17.065 5.88915L18.4589 6.11163C21.6736 6.62274 24.9459 7.14588 28.2634 7.14588C29.8965 7.14588 32.1476 7.0196 33.8036 6.69489C35.0202 6.45978 36.2362 6.12967 37.4643 5.66666Z" fill="white"/>
<path fill-rule="evenodd" clip-rule="evenodd" d="M12.6667 5.52176V32.0653C11.4963 31.9899 10.5932 31.9381 9.95761 31.9101C9.32198 31.882 8.52161 31.882 7.55652 31.9101C6.43406 32.0001 5.59854 32.0913 5.04996 32.1837C4.50139 32.2761 3.70696 32.4371 2.66669 32.6667V5.92809C3.62231 5.72208 4.35055 5.58663 4.85139 5.52176C5.35223 5.45688 6.11472 5.39923 7.13886 5.3488C8.234 5.32818 9.11099 5.32818 9.76982 5.3488C10.4287 5.36941 11.3943 5.42706 12.6667 5.52176Z" fill="#FF8979" stroke="#FF8979" stroke-width="0.190909"/>
<path fill-rule="evenodd" clip-rule="evenodd" d="M27.3333 7.24271V33.9205C27.8797 33.9599 28.2912 33.9837 28.5678 33.9918C29.0402 34.0058 29.6135 33.9992 29.9478 33.9918C30.5758 33.9781 31.3366 33.9185 32.2305 33.8132C32.9211 33.6999 33.4389 33.6063 33.7839 33.5325C34.1289 33.4586 34.6863 33.3122 35.4561 33.093L37.3333 32.4759V6L35.3485 6.64911C34.387 6.88436 33.712 7.03083 33.3233 7.08851C32.9346 7.14619 32.2127 7.21995 31.1578 7.30981C30.2525 7.31733 29.5854 7.31733 29.1565 7.30981C28.7275 7.30228 28.1198 7.27992 27.3333 7.24271Z" fill="#FF8979" stroke="#FF8979" stroke-width="0.190909"/>
<path d="M20.1958 14.6667L19.2301 16.407C19.1205 16.5962 18.9241 16.5786 18.7278 16.473L18.0286 16.1232L18.5497 18.7963C18.6593 19.2847 18.3077 19.2847 18.1342 19.0735L16.914 17.7537L16.7159 18.4239C16.6931 18.5119 16.5926 18.6044 16.4419 18.5824L14.899 18.2689L15.3042 19.6925C15.391 20.0093 15.4587 20.1404 15.2166 20.224L14.6667 20.4737L17.3228 22.5582C17.4279 22.637 17.481 22.7789 17.4436 22.9073L17.2112 23.6444C18.1257 23.5425 18.6186 23.3893 19.5336 23.2949C19.6144 23.2866 19.7496 23.4154 19.749 23.5058L19.6623 26.2062H20.6959L20.6616 23.5116C20.6611 23.4212 20.7837 23.2866 20.8645 23.2949C21.7795 23.3893 22.2664 23.5425 23.181 23.6444L22.9485 22.9073C22.9111 22.7789 22.9642 22.637 23.0693 22.5582L25.7254 20.4737L25.1755 20.224C24.9334 20.1404 25.0011 20.0093 25.0879 19.6925L25.4931 18.2689L23.9502 18.5824C23.7995 18.6044 23.699 18.5119 23.6762 18.4239L23.4781 17.7537L22.2579 19.0735C22.0844 19.2847 21.7328 19.2847 21.8424 18.7963L22.3635 16.1232L21.6643 16.473C21.4679 16.5786 21.0738 16.5962 20.9642 16.407" fill="#FF8979"/>
<path fill-rule="evenodd" clip-rule="evenodd" d="M3.33333 6.53435V32.1318C8.4268 30.9419 13.3085 31.5289 17.4438 32.15L17.4485 32.1507L18.5841 32.3294C23.7918 33.1647 29.209 33.9087 34.0695 32.6976C34.0751 32.6962 34.0808 32.6949 34.0865 32.6936C34.9677 32.4984 35.8137 32.2177 36.6667 31.8829V6.79071C36.4389 6.87949 36.2024 6.96663 35.9922 7.03648C35.8777 7.07454 35.7758 7.09663 35.7161 7.10958C35.7083 7.11126 35.7012 7.11279 35.6949 7.11418C35.6701 7.11969 35.6567 7.12317 35.6507 7.12477C35.6203 7.13923 35.5889 7.15137 35.5567 7.16108C30.2605 8.75701 23.8516 7.59555 19.299 6.77049L19.2546 6.76244L19.2432 6.76027C19.1261 6.73693 19.0189 6.72472 18.8824 6.70961L18.8744 6.70872C18.7521 6.69517 18.6051 6.67891 18.4408 6.64774C18.1609 6.61903 17.8706 6.57857 17.5885 6.53926C17.5636 6.53579 17.5388 6.53233 17.514 6.52889C17.1927 6.4842 16.879 6.4417 16.5686 6.41358L16.5627 6.41304C16.2662 6.38349 15.9545 6.35387 15.641 6.32411L15.6401 6.32403C15.3275 6.29435 15.0129 6.26449 14.713 6.2346L14.7107 6.23437C13.0094 6.05894 11.3029 6 9.7074 6C7.29843 6 5.14474 6.19433 3.33333 6.53435ZM2.52876 5.33527C4.55132 4.90765 6.98523 4.66666 9.7074 4.66666C11.3336 4.66666 13.0874 4.72663 14.8464 4.90795C15.1425 4.93747 15.4538 4.96701 15.767 4.99674L15.7678 4.99682C16.0794 5.0264 16.393 5.05616 16.692 5.08596C17.0369 5.1173 17.3785 5.16387 17.6977 5.20826C17.7209 5.2115 17.744 5.21472 17.767 5.21791C18.0659 5.25954 18.342 5.29799 18.6043 5.32414C18.6258 5.32629 18.6473 5.32948 18.6685 5.33372C18.7856 5.35705 18.8927 5.36926 19.0292 5.38438L19.0372 5.38526C19.1663 5.39955 19.3226 5.41686 19.4978 5.45147C24.1175 6.28864 30.1901 7.36913 35.1299 5.89705C35.244 5.84846 35.3461 5.8258 35.4066 5.8124C35.4165 5.81022 35.4256 5.8082 35.4343 5.8063C35.4954 5.79284 35.5284 5.78559 35.5718 5.77116C36.0856 5.60044 36.7715 5.3145 36.9763 5.21243C37.0687 5.1664 37.1705 5.14244 37.2737 5.14244H37.3333C37.7015 5.14244 38 5.44091 38 5.8091V32.3335C38 32.6039 37.8366 32.8475 37.5865 32.9502C36.5549 33.3736 35.5048 33.7444 34.3834 33.9935C29.2223 35.2771 23.5451 34.4755 18.3739 33.6461C18.3736 33.646 18.3732 33.646 18.3729 33.6459L17.2458 33.4685C17.2451 33.4684 17.2443 33.4683 17.2436 33.4682C12.8953 32.8152 7.94589 32.2435 2.84154 33.631C2.64113 33.6855 2.42678 33.6434 2.26178 33.5173C2.09679 33.3912 2 33.1953 2 32.9877V5.98752C2 5.67248 2.22054 5.40044 2.52876 5.33527Z" fill="#4F5661"/>
</svg>
