<svg width="40" height="40" viewBox="0 0 40 40" fill="none" xmlns="http://www.w3.org/2000/svg">
<path fill-rule="evenodd" clip-rule="evenodd" d="M8.70162 23.924H6.26495C6.18473 23.9239 6.10532 23.908 6.03125 23.8771C5.95719 23.8463 5.88994 23.8012 5.83334 23.7443C5.77674 23.6875 5.73191 23.62 5.70141 23.5458C5.67091 23.4717 5.65535 23.3922 5.65561 23.312V20.864C5.65561 20.5253 5.92762 20.252 6.26495 20.252H8.70162C9.03828 20.252 9.31095 20.5253 9.31095 20.864V23.312C9.31121 23.3922 9.29565 23.4717 9.26515 23.5458C9.23466 23.62 9.18983 23.6875 9.13323 23.7443C9.07663 23.8012 9.00937 23.8463 8.93531 23.8771C8.86125 23.908 8.78183 23.9239 8.70162 23.924ZM14.1843 23.924H11.7476C11.6674 23.9239 11.588 23.908 11.5139 23.8771C11.4399 23.8463 11.3726 23.8012 11.316 23.7443C11.2594 23.6875 11.2146 23.62 11.1841 23.5458C11.1536 23.4717 11.138 23.3922 11.1383 23.312V20.864C11.1383 20.5253 11.4109 20.252 11.7476 20.252H14.1843C14.5216 20.252 14.7936 20.5253 14.7936 20.864V23.312C14.7939 23.3922 14.7783 23.4717 14.7478 23.5458C14.7173 23.62 14.6725 23.6875 14.6159 23.7443C14.5593 23.8012 14.492 23.8463 14.418 23.8771C14.3439 23.908 14.2645 23.9239 14.1843 23.924ZM20.2763 20.864V23.312C20.2761 23.4736 20.212 23.6287 20.098 23.7433C19.984 23.858 19.8293 23.9229 19.6676 23.924H17.2303C17.0686 23.9229 16.9139 23.858 16.7999 23.7433C16.6859 23.6287 16.6218 23.4736 16.6216 23.312V20.864C16.6216 20.5273 16.8949 20.252 17.2303 20.252L19.7163 20.258C20.0269 20.2826 20.2763 20.5453 20.2763 20.864ZM8.70162 29.4326H6.26495C6.18467 29.4325 6.1052 29.4166 6.0311 29.3857C5.95699 29.3549 5.88971 29.3097 5.8331 29.2528C5.77649 29.1959 5.73167 29.1283 5.70122 29.0541C5.67076 28.9798 5.65526 28.9002 5.65561 28.82V26.372C5.65561 26.034 5.92762 25.76 6.26495 25.76H8.70162C9.03828 25.76 9.31095 26.0333 9.31095 26.372V28.82C9.3113 28.9002 9.2958 28.9798 9.26535 29.0541C9.23489 29.1283 9.19007 29.1959 9.13346 29.2528C9.07686 29.3097 9.00957 29.3549 8.93546 29.3857C8.86136 29.4166 8.78189 29.4325 8.70162 29.4326ZM14.1843 29.4326H11.7476C11.6673 29.4325 11.5879 29.4166 11.5138 29.3857C11.4397 29.3549 11.3724 29.3097 11.3158 29.2528C11.2592 29.1959 11.2143 29.1283 11.1839 29.0541C11.1534 28.9798 11.1379 28.9002 11.1383 28.82V26.372C11.1383 26.034 11.4109 25.76 11.7476 25.76H14.1843C14.5216 25.76 14.7936 26.0333 14.7936 26.372V28.82C14.794 28.9002 14.7785 28.9798 14.748 29.0541C14.7176 29.1283 14.6727 29.1959 14.6161 29.2528C14.5595 29.3097 14.4922 29.3549 14.4181 29.3857C14.344 29.4166 14.2646 29.4325 14.1843 29.4326ZM19.667 29.4326H17.2303C17.1501 29.4324 17.0707 29.4165 16.9966 29.3856C16.9226 29.3547 16.8554 29.3095 16.7989 29.2525C16.7423 29.1956 16.6976 29.1281 16.6672 29.0539C16.6367 28.9797 16.6213 28.9002 16.6216 28.82V26.372C16.6216 26.034 16.8936 25.76 17.2303 25.76H19.6676C20.0043 25.76 20.2763 26.0333 20.2763 26.372V28.82C20.2766 28.9002 20.2612 28.9797 20.2307 29.0539C20.2003 29.1281 20.1556 29.1956 20.099 29.2525C20.0425 29.3095 19.9753 29.3547 19.9013 29.3856C19.8272 29.4165 19.7478 29.4324 19.6676 29.4326H19.667ZM8.70162 34.9406H6.26495C6.18473 34.9405 6.10532 34.9246 6.03125 34.8938C5.95719 34.863 5.88994 34.8179 5.83334 34.761C5.77674 34.7042 5.73191 34.6367 5.70141 34.5625C5.67091 34.4883 5.65535 34.4088 5.65561 34.3286V31.88C5.65561 31.5413 5.92762 31.268 6.26495 31.268H8.70162C9.03828 31.268 9.31095 31.5413 9.31095 31.88V34.328C9.31121 34.4082 9.29565 34.4877 9.26515 34.5619C9.23466 34.636 9.18983 34.7035 9.13323 34.7603C9.07663 34.8172 9.00937 34.8623 8.93531 34.8931C8.86125 34.924 8.78183 34.9399 8.70162 34.94V34.9406ZM14.1843 34.9406H11.7476C11.6674 34.9405 11.588 34.9246 11.5139 34.8938C11.4399 34.863 11.3726 34.8179 11.316 34.761C11.2594 34.7042 11.2146 34.6367 11.1841 34.5625C11.1536 34.4883 11.138 34.4088 11.1383 34.3286V31.88C11.1383 31.5413 11.4109 31.268 11.7476 31.268H14.1843C14.5216 31.268 14.7936 31.5413 14.7936 31.88V34.328C14.7939 34.4082 14.7783 34.4877 14.7478 34.5619C14.7173 34.636 14.6725 34.7035 14.6159 34.7603C14.5593 34.8172 14.492 34.8623 14.418 34.8931C14.3439 34.924 14.2645 34.9399 14.1843 34.94V34.9406ZM19.667 34.9406H17.2303C17.1501 34.9404 17.0708 34.9245 16.9968 34.8936C16.9228 34.8628 16.8556 34.8176 16.7991 34.7608C16.7426 34.7039 16.6978 34.6365 16.6673 34.5624C16.6369 34.4882 16.6214 34.4088 16.6216 34.3286V31.88C16.6216 31.5413 16.8936 31.268 17.2303 31.268H19.6676C20.0043 31.268 20.2763 31.5413 20.2763 31.88V34.328C20.2765 34.4081 20.261 34.4875 20.2306 34.5617C20.2001 34.6358 20.1553 34.7033 20.0988 34.7601C20.0423 34.8169 19.9751 34.8621 19.9011 34.8929C19.8271 34.9238 19.7478 34.9398 19.6676 34.94" fill="#D3E5EF"/>
<path fill-rule="evenodd" clip-rule="evenodd" d="M6.87359 17.1912H19.0583V13.5199H6.87359V17.1919V17.1912ZM19.6669 12.2952H6.26559C6.18537 12.2953 6.10595 12.3112 6.03189 12.342C5.95783 12.3729 5.89057 12.418 5.83397 12.4748C5.77737 12.5317 5.73254 12.5991 5.70205 12.6733C5.67155 12.7475 5.65599 12.827 5.65625 12.9072V17.8032C5.65625 18.1419 5.92825 18.4159 6.26559 18.4159H19.6669C20.0036 18.4159 20.2756 18.1426 20.2756 17.8032V12.9072C20.2758 12.8271 20.2603 12.7476 20.2299 12.6735C20.1994 12.5993 20.1546 12.5319 20.0981 12.4751C20.0416 12.4182 19.9744 12.3731 19.9004 12.3422C19.8264 12.3114 19.7471 12.2954 19.6669 12.2952Z" fill="#4F5661"/>
<path fill-rule="evenodd" clip-rule="evenodd" d="M29.1101 0.666656C24.9101 0.666656 21.4948 4.09866 21.4948 8.31732C21.4948 9.66399 21.8508 10.982 22.5255 12.15L21.5268 15.162C21.4966 15.2537 21.4884 15.3513 21.503 15.4467C21.5176 15.5422 21.5546 15.6329 21.6108 15.7114C21.6671 15.7899 21.7411 15.8539 21.8268 15.8984C21.9125 15.9429 22.0076 15.9665 22.1041 15.9673C22.1633 15.9673 22.2221 15.9588 22.2788 15.942L25.4121 14.9967C26.5413 15.6317 27.8147 15.966 29.1101 15.9673C33.3095 15.9673 36.7248 12.536 36.7248 8.31732C36.7248 4.09866 33.3095 0.666656 29.1101 0.666656Z" fill="#53C27C"/>
<path fill-rule="evenodd" clip-rule="evenodd" d="M23.322 17.8034C23.2418 17.8035 23.1624 17.8195 23.0884 17.8504C23.0143 17.8813 22.9471 17.9265 22.8906 17.9834C22.8341 18.0403 22.7893 18.1078 22.7589 18.1821C22.7285 18.2563 22.713 18.3358 22.7134 18.416V36.7767C22.7134 37.1147 22.44 37.3887 22.104 37.3887H3.82668C3.66484 37.3882 3.50983 37.3234 3.3957 37.2087C3.28157 37.0939 3.21766 36.9385 3.21802 36.7767V10.46C3.21802 10.122 3.49068 9.84802 3.82668 9.84802H19.6667C20.0033 9.84802 20.2754 9.57469 20.2754 9.23602C20.2756 9.15586 20.2601 9.07643 20.2296 9.00228C20.1992 8.92813 20.1544 8.8607 20.0979 8.80387C20.0413 8.74703 19.9742 8.70189 19.9002 8.67103C19.8262 8.64017 19.7468 8.6242 19.6667 8.62402H3.82668C3.34132 8.62596 2.87651 8.82023 2.53412 9.16425C2.19172 9.50827 1.99966 9.97399 2.00002 10.4594V36.7767C1.99948 37.2623 2.19156 37.7283 2.53412 38.0725C2.87668 38.4166 3.34175 38.6109 3.82735 38.6127H22.104C22.5896 38.6109 23.0547 38.4166 23.3972 38.0725C23.7398 37.7283 23.9319 37.2623 23.9313 36.7767V18.416C23.9317 18.3357 23.9162 18.2562 23.8857 18.1819C23.8553 18.1076 23.8105 18.0401 23.7539 17.9832C23.6973 17.9263 23.63 17.8811 23.5559 17.8502C23.4818 17.8194 23.4023 17.8034 23.322 17.8034Z" fill="#4F5661"/>
<path fill-rule="evenodd" clip-rule="evenodd" d="M31.5466 11.9892C31.3133 11.9892 31.0786 11.8999 30.9 11.7205L28.196 9.0032V5.25653C28.196 4.74987 28.6053 4.33853 29.1093 4.33853C29.614 4.33853 30.0233 4.74987 30.0233 5.25653V8.2432L32.1933 10.4219C32.5493 10.7805 32.5493 11.3619 32.1933 11.7205C32.1086 11.8059 32.0079 11.8735 31.8969 11.9197C31.7859 11.9658 31.6668 11.9894 31.5466 11.9892Z" fill="white"/>
</svg>
