<svg width="60" height="60" fill="none" xmlns="http://www.w3.org/2000/svg"><mask id="a" maskUnits="userSpaceOnUse" x="3" y="1" width="53" height="58"><path d="M3 57.087V1h53v57.039H3v-.95.95h53v-1.901H3v.949z" fill="#fff"/></mask><g mask="url(#a)"><path fill-rule="evenodd" clip-rule="evenodd" d="M55.054 58.04H3.946A.946.946 0 013 57.085c0-.525.423-.95.946-.95h51.108a.947.947 0 01.875 1.313.947.947 0 01-.875.588" fill="#D3E5EF"/></g><path fill-rule="evenodd" clip-rule="evenodd" d="M29.5 57.087h14.357c.456 0 .846-.367.93-.873l2.485-14.975c.11-.658-.338-1.267-.93-1.267H12.658c-.592 0-1.04.61-.93 1.267l2.484 14.975c.085.506.475.873.93.873H29.5z" fill="#fff"/><path fill-rule="evenodd" clip-rule="evenodd" d="M12.658 40.923c.028.001-.013.064.003.16l2.485 14.975c.01.055.032.084.04.089l28.658-.01c-.015-.006.003-.032.01-.08l2.485-14.974c.016-.096-.025-.159-.04-.172l-33.64.012zm31.2 17.115H15.142c-.92 0-1.704-.7-1.865-1.667l-2.484-14.976a2.103 2.103 0 01.458-1.706c.358-.424.87-.668 1.406-.668h33.684c.535 0 1.048.244 1.406.668.394.466.56 1.088.458 1.706l-2.483 14.974c-.16.967-.945 1.668-1.865 1.668l.001.001z" fill="#4F5661"/><path fill-rule="evenodd" clip-rule="evenodd" d="M29.5 45.677c-1.593 0-2.84 1.044-2.84 2.377 0 1.333 1.247 2.377 2.84 2.377 1.593 0 2.84-1.044 2.84-2.377 0-1.333-1.247-2.377-2.84-2.377zm8.114-37.458c-1.16-3.648-3.953-6.28-8.143-6.28-5.134 0-8.545 3.993-8.545 8.904 0 0 1.468.893 4.257-1.774a14.45 14.45 0 004.676 2.212c4.095 1.094 6.785.059 8.213-.428" fill="#D3E5EF"/><path fill-rule="evenodd" clip-rule="evenodd" d="M24.234 27.07l-3.308 2.155 4.79 6.944 3.069-1.555-4.551-7.543zm10.674 0l3.165 2.155-4.92 6.944-3.163-1.555 4.918-7.543z" fill="#F4877A"/><path fill-rule="evenodd" clip-rule="evenodd" d="M29.5 32.999l-4.055-6.212v-2.184c1.387.807 2.828 1.266 4.054 1.266 1.226 0 2.667-.46 4.055-1.266v2.184L29.5 33l.001-.001zm10.522-4.244c-.22-.102-.439-.202-.648-.3l-3.61-2.849a.933.933 0 00-.318-.161v-2.208c2.017-1.769 3.573-4.3 3.573-7.211v-5.162a.954.954 0 00-.807-.941.943.943 0 00-.444.04l-.186.064c-1.432.495-3.83 1.322-7.48.344a13.514 13.514 0 01-4.368-2.064.942.942 0 00-1.204.084c-1.25 1.196-2.125 1.545-2.622 1.636.357-4.176 3.428-7.125 7.563-7.125 3.466 0 6.106 2.047 7.242 5.616a.942.942 0 001.743.145.95.95 0 00.06-.724C37.132 3.594 33.75 1 29.47 1c-5.41 0-9.492 4.236-9.492 9.852a.95.95 0 00.456.813c.2.123 1.95 1.06 4.83-1.382a15.485 15.485 0 004.35 1.927c3.368.9 5.865.448 7.511-.035v3.85c0 2.351-1.398 4.497-3.145 5.965a.928.928 0 00-.19.163c-1.41 1.128-3.014 1.814-4.292 1.814s-2.883-.686-4.29-1.814a.922.922 0 00-.192-.163c-1.746-1.469-3.145-3.614-3.145-5.964v-2.58a.948.948 0 00-1.617-.672.946.946 0 00-.276.671v2.58c0 2.912 1.556 5.443 3.573 7.212v2.655l-3.25 2.562c-.209.099-.426.199-.648.3-2.636 1.214-6.243 2.875-6.243 7.415a.947.947 0 101.893 0c0-3.32 2.612-4.523 5.14-5.685.263-.122.52-.24.766-.357a.987.987 0 00.178-.113l2.573-2.03 4.747 7.271a.947.947 0 001.582 0l4.977-7.623 3.022 2.382a.988.988 0 00.177.113c.247.117.504.235.768.357 2.527 1.162 5.14 2.365 5.14 5.685a.946.946 0 101.892 0c0-4.54-3.609-6.201-6.244-7.414z" fill="#4F5661"/><path fill-rule="evenodd" clip-rule="evenodd" d="M29.5 20.844a3.804 3.804 0 01-3.294-1.912.948.948 0 011.641-.949c.344.601.962.96 1.652.96a1.88 1.88 0 001.65-.959.944.944 0 011.293-.35c.453.261.61.843.35 1.297a3.803 3.803 0 01-3.293 1.913" fill="#4F5661"/></svg>