<svg width="60" height="60" fill="none" xmlns="http://www.w3.org/2000/svg"><path fill-rule="evenodd" clip-rule="evenodd" d="M43.725 51.268h8.534V18.143h-8.534v33.125z" fill="#5BBF89"/><path fill-rule="evenodd" clip-rule="evenodd" d="M42.774 18.143a.95.95 0 01.95-.95h8.534a.95.95 0 01.95.95v33.125a.95.95 0 01-.95.95h-8.534a.95.95 0 01-.95-.95V18.143zm1.9.95v31.225h6.634V19.093h-6.634z" fill="#5BBF89"/><path fill-rule="evenodd" clip-rule="evenodd" d="M32.346 51.268h6.637V30.447h-6.637v20.82z" fill="#D3E5EF"/><path fill-rule="evenodd" clip-rule="evenodd" d="M31.395 30.447a.95.95 0 01.95-.95h6.638a.95.95 0 01.95.95v20.82a.95.95 0 01-.95.95h-6.637a.95.95 0 01-.95-.95v-20.82zm1.9.95v18.92h4.737v-18.92h-4.736zm-12.33 19.871h6.638V39.911h-6.638v11.357z" fill="#D3E5EF"/><path fill-rule="evenodd" clip-rule="evenodd" d="M20.015 39.91a.95.95 0 01.95-.95h6.638a.95.95 0 01.95.95v11.358a.95.95 0 01-.95.95h-6.638a.95.95 0 01-.95-.95V39.91zm1.9.95v9.458h4.738V40.86h-4.738zM9.586 51.268h6.638v-7.571H9.586v7.57z" fill="#D3E5EF"/><path fill-rule="evenodd" clip-rule="evenodd" d="M8.636 43.697a.95.95 0 01.95-.95h6.638a.95.95 0 01.95.95v7.57a.95.95 0 01-.95.95H9.586a.95.95 0 01-.95-.95v-7.57zm1.9.95v5.67h4.738v-5.67h-4.738z" fill="#D3E5EF"/><path d="M13.609 28.526c.115-.029.326-.086.627-.173a41.91 41.91 0 001.712-.542 64.035 64.035 0 006.059-2.424 75.872 75.872 0 0018.338-11.855 74.058 74.058 0 007.898-8.029.944.944 0 00-.806-1.552.95.95 0 00-.644.333 72.16 72.16 0 01-7.696 7.824 73.987 73.987 0 01-17.88 11.56 62.124 62.124 0 01-5.878 2.35c-.617.21-1.163.38-1.633.517-.277.081-.465.132-.556.155a.946.946 0 10.46 1.836h-.001z" fill="#4B5E69"/><path d="M47.517 4.893v6.625a.948.948 0 101.897 0V3.947a.946.946 0 00-.949-.946h-7.586a.947.947 0 100 1.892h6.638zM2 12.465v42.59a2.843 2.843 0 002.845 2.838h53.103a.946.946 0 100-1.892H4.845a.949.949 0 01-.949-.947v-42.59a.948.948 0 10-1.896 0v.001z" fill="#4B5E69"/></svg>