<svg width="40" height="40" viewBox="0 0 40 40" fill="none" xmlns="http://www.w3.org/2000/svg">
<path d="M20.3333 10.3334C19.5333 10.6 16.2222 11.1112 14.6667 11.3334V11.6667C14.5556 12.1111 14.3333 13.3333 14.3333 14.6667C14.3333 16 15.8889 17.6667 16.6667 18.3333V24.3333H8V39C15.4444 39 30.4667 38.8667 31 38.3333C31.5333 37.8 31.4444 36.7778 31.3333 36.3333H27.3333V25C28 24.3333 28.3333 24 29.6667 23C30.9106 22.0671 34.4444 19.4445 36 18.3333C36.1111 17.3333 36.3333 14.6 36.3333 11.6667C36.3333 8.73334 35.6667 6.44445 35.3333 5.66668C35.5556 5.11112 36 3.73334 36 2.66668C36 1.33334 33 1.33334 32 1.33334C31 1.33334 30.6667 4.00001 30.6667 4.66668C30.6667 5.20001 31.3333 6.00001 31.6667 6.33334C31.6667 6.77779 31.6 7.93334 31.3333 9.00001C31.0667 10.0667 31.6667 13.6667 32 15.3333C31 16 28.8 17.4 28 17.6667C27.2 17.9333 24.5556 20 23.3333 21L23 18.3333C23.5556 17.7778 24.7333 16.4 25 15.3333C25.2667 14.2667 25.1111 12 25 11C24.4444 10.5556 23.2 9.60004 22.6667 9.33337C22 9.00004 21.3333 10 20.3333 10.3334Z" fill="white"/>
<path d="M27.38 15.3333C31.6067 12 27.1867 11.2667 28.0467 8.89333C28.9067 6.52 27.98 5.16667 25.4467 5.16667C22.9133 5.16667 22.78 2.5 20.1133 2.5C17.32 2.5 17.38 4.36667 14 5.16667C10.62 5.96667 13.0333 8.46 11.5333 9.83333C9.53333 11.7333 10.4067 14.3067 12.4667 14.9667C12.4667 14.9667 14.1067 15.3467 14.5333 15.1533C14.1733 13.3933 13.42 10.62 16.6133 10.6867C17.3333 10.6867 21.1933 9.2 22.1733 9.26C24.6133 9.42 25.7867 11.26 24.84 15.8133C25.7006 15.7391 26.5516 15.5783 27.38 15.3333Z" fill="#CFE6F0"/>
<path d="M17.7467 32.9867C18.5125 32.9867 19.1333 32.3659 19.1333 31.6C19.1333 30.8342 18.5125 30.2134 17.7467 30.2134C16.9808 30.2134 16.36 30.8342 16.36 31.6C16.36 32.3659 16.9808 32.9867 17.7467 32.9867Z" fill="#CFE6F0"/>
<path d="M27.18 15.84C27.0454 15.836 26.9151 15.7914 26.8064 15.712C26.6977 15.6326 26.6155 15.5221 26.5708 15.3951C26.5261 15.2681 26.5208 15.1306 26.5558 15.0005C26.5907 14.8705 26.6643 14.7541 26.7666 14.6667C28.9066 12.9867 28.5 12.3667 27.8333 11.3333C27.3666 10.62 26.78 9.72666 27.2266 8.50666C27.4733 7.83999 27.68 6.91999 27.2866 6.35999C26.8933 5.79999 25.9533 5.69333 25.2866 5.69333C24.6939 5.6799 24.111 5.53828 23.5782 5.2782C23.0454 5.01811 22.5752 4.64573 22.2 4.18666C21.5333 3.51999 21.0066 3.02666 19.94 3.02666C18.999 3.00858 18.0879 3.35769 17.4 3.99999C16.4101 4.80853 15.2463 5.37672 14 5.65999C12.5266 5.99999 12.5466 6.53999 12.5933 7.62666C12.6719 8.08411 12.6443 8.55352 12.5125 8.99858C12.3807 9.44364 12.1483 9.85242 11.8333 10.1933C11.4898 10.4727 11.2271 10.8388 11.0724 11.2537C10.9177 11.6686 10.8766 12.1172 10.9533 12.5533C11.0501 12.9397 11.2452 13.2944 11.5197 13.583C11.7943 13.8716 12.1389 14.0841 12.52 14.2C12.6086 14.222 12.6917 14.262 12.7642 14.3175C12.8367 14.373 12.8971 14.4428 12.9415 14.5225C12.9859 14.6023 13.0135 14.6904 13.0225 14.7812C13.0315 14.8721 13.0218 14.9638 12.9939 15.0507C12.9659 15.1377 12.9205 15.218 12.8603 15.2866C12.8001 15.3552 12.7264 15.4108 12.6438 15.4498C12.5613 15.4888 12.4716 15.5104 12.3803 15.5133C12.2891 15.5162 12.1982 15.5003 12.1133 15.4667C11.5116 15.2801 10.9686 14.9407 10.5374 14.4814C10.1062 14.0222 9.80158 13.4589 9.65331 12.8467C9.52256 12.1835 9.5717 11.4975 9.79561 10.8598C10.0195 10.222 10.41 9.65584 10.9266 9.21999C11.2866 8.87333 11.2866 8.41333 11.26 7.67999C11.2133 6.59333 11.1466 4.95333 13.7 4.34666C14.7647 4.11108 15.7584 3.62676 16.6 2.93333C17.5193 2.1216 18.707 1.67976 19.9333 1.69333C20.543 1.70753 21.1426 1.85165 21.6921 2.11607C22.2417 2.38049 22.7284 2.75911 23.12 3.22666C23.7866 3.85333 24.2666 4.33999 25.2533 4.33999C26.74 4.33999 27.7866 4.75999 28.3733 5.59333C28.96 6.42666 28.9866 7.59333 28.4733 8.96666C28.2666 9.52666 28.5066 9.93333 28.9466 10.6067C29.86 12.0067 30.4466 13.4533 27.6133 15.7C27.4898 15.7961 27.3364 15.8456 27.18 15.84Z" fill="#4F5661"/>
<path d="M16.6667 22.7934C16.4899 22.7934 16.3203 22.7232 16.1953 22.5982C16.0702 22.4731 16 22.3036 16 22.1267V18.2734C16.0384 18.1322 16.1222 18.0075 16.2384 17.9186C16.3547 17.8297 16.497 17.7816 16.6433 17.7816C16.7897 17.7816 16.932 17.8297 17.0482 17.9186C17.1645 18.0075 17.2483 18.1322 17.2867 18.2734V22.1534C17.2867 22.3302 17.2164 22.4998 17.0914 22.6248C16.9664 22.7498 16.7968 22.8201 16.62 22.8201" fill="#4F5661"/>
<path d="M19.8267 20.2468C18.2086 20.1154 16.7016 19.3714 15.6133 18.1668C14.4356 17.0349 13.7486 15.4862 13.7 13.8535V11.1201C13.7 10.9433 13.7703 10.7737 13.8953 10.6487C14.0203 10.5237 14.1899 10.4535 14.3667 10.4535H15.4667C19.4267 10.2601 20.1333 9.78679 21.2667 8.98012C22.54 8.08679 23.6667 8.98012 24.4867 9.64679C24.8168 9.94125 25.1818 10.1942 25.5733 10.4001C25.6916 10.4517 25.7923 10.5365 25.8633 10.6442C25.9343 10.7518 25.9725 10.8778 25.9733 11.0068V13.8468C25.9279 15.4855 25.238 17.0402 24.0533 18.1735C22.9599 19.3776 21.4482 20.1191 19.8267 20.2468ZM15.0333 11.7801V13.8535C15.0801 15.1379 15.6309 16.3523 16.5667 17.2335C17.4133 18.1708 18.572 18.768 19.8267 18.9135C21.0813 18.7713 22.2419 18.1791 23.0933 17.2468C24.0281 16.3594 24.5785 15.1414 24.6267 13.8535V11.4201C24.2783 11.1926 23.9464 10.9409 23.6333 10.6668C22.7333 9.93345 22.4133 9.76679 22.0133 10.0401C20.6 11.0268 19.6667 11.5468 15.4933 11.7468L15.0333 11.7801Z" fill="#4F5661"/>
<path d="M19.8267 17.0402C19.3786 17.0404 18.9385 16.9221 18.551 16.6973C18.1634 16.4725 17.8422 16.1492 17.62 15.7602C17.5718 15.6843 17.5394 15.5994 17.5248 15.5107C17.5102 15.422 17.5137 15.3312 17.5351 15.2439C17.5565 15.1566 17.5953 15.0745 17.6492 15.0025C17.7032 14.9306 17.7711 14.8703 17.849 14.8253C17.9268 14.7803 18.013 14.7515 18.1022 14.7407C18.1915 14.7299 18.282 14.7372 18.3683 14.7622C18.4547 14.7873 18.5351 14.8296 18.6047 14.8865C18.6743 14.9434 18.7316 15.0138 18.7733 15.0935C18.8597 15.244 18.978 15.3737 19.12 15.4735C19.3272 15.6183 19.5739 15.696 19.8267 15.696C20.0794 15.696 20.3261 15.6183 20.5333 15.4735C20.6792 15.3734 20.8001 15.2411 20.8867 15.0868C20.9302 15.0104 20.9884 14.9434 21.058 14.8896C21.1276 14.8358 21.2071 14.7963 21.292 14.7734C21.3769 14.7505 21.4655 14.7446 21.5527 14.756C21.6398 14.7675 21.7239 14.7961 21.8 14.8402C21.8758 14.8843 21.9422 14.9429 21.9953 15.0127C22.0485 15.0825 22.0873 15.1622 22.1096 15.247C22.1319 15.3319 22.1372 15.4203 22.1253 15.5072C22.1133 15.5941 22.0843 15.6778 22.04 15.7535C21.8682 16.074 21.6267 16.3519 21.3333 16.5668C20.8937 16.8799 20.3663 17.0456 19.8267 17.0402Z" fill="#4F5661"/>
<path d="M7.47335 26.98C10.128 26.98 12.28 24.828 12.28 22.1734C12.28 19.5187 10.128 17.3667 7.47335 17.3667C4.8187 17.3667 2.66669 19.5187 2.66669 22.1734C2.66669 24.828 4.8187 26.98 7.47335 26.98Z" fill="#53C27C"/>
<path d="M10.6133 20.8801L9.96666 20.2534L6.97332 23.3201L5.48666 21.9201L4.88666 22.5868L6.76666 24.3401L7.00666 24.5734L10.6133 20.8801Z" fill="white" stroke="white" stroke-linejoin="round"/>
<path d="M31.4266 35.2734H28.0933V25.6934C28.0933 25.1629 27.8826 24.6542 27.5075 24.2791C27.1325 23.9041 26.6237 23.6934 26.0933 23.6934H13.8666C13.6898 23.6934 13.5203 23.7636 13.3952 23.8886C13.2702 24.0136 13.2 24.1832 13.2 24.36C13.2 24.5368 13.2702 24.7064 13.3952 24.8314C13.5203 24.9565 13.6898 25.0267 13.8666 25.0267H26.1066C26.2835 25.0267 26.453 25.0969 26.578 25.222C26.7031 25.347 26.7733 25.5165 26.7733 25.6934V38.1067H8.49331V28.9734C8.49331 28.7965 8.42307 28.627 8.29804 28.502C8.17302 28.3769 8.00345 28.3067 7.82664 28.3067C7.64983 28.3067 7.48026 28.3769 7.35524 28.502C7.23021 28.627 7.15997 28.7965 7.15997 28.9734V38.7734C7.15997 38.9502 7.23021 39.1197 7.35524 39.2448C7.48026 39.3698 7.64983 39.44 7.82664 39.44H27.44H27.54C27.571 39.4438 27.6023 39.4438 27.6333 39.44H30.0933C30.6237 39.44 31.1325 39.2293 31.5075 38.8542C31.8826 38.4792 32.0933 37.9705 32.0933 37.44V35.94C32.0933 35.7632 32.0231 35.5936 31.898 35.4686C31.773 35.3436 31.6035 35.2734 31.4266 35.2734ZM30.76 37.44C30.76 37.6168 30.6897 37.7864 30.5647 37.9114C30.4397 38.0365 30.2701 38.1067 30.0933 38.1067H28.0933V36.6067H30.76V37.44Z" fill="#4F5661"/>
<path d="M36.0667 5.68675C36.12 5.60675 36.1733 5.52675 36.22 5.44008C36.4816 5.00043 36.6329 4.50394 36.6607 3.99309C36.6886 3.48224 36.5923 2.97224 36.38 2.50675C35.8733 1.64675 34.3267 0.813413 33 0.666746C32.6221 0.59982 32.2337 0.625513 31.868 0.741623C31.5022 0.857733 31.1701 1.0608 30.9 1.33341C30.6647 1.61951 30.4984 1.95594 30.414 2.31663C30.3296 2.67733 30.3294 3.05261 30.4133 3.41341C30.2479 3.58869 30.1227 3.79802 30.0467 4.02675C29.9412 4.36223 29.9219 4.71888 29.9907 5.06377C30.0594 5.40866 30.214 5.73067 30.44 6.00008C30.5972 6.206 30.7836 6.38792 30.9933 6.54008C30.48 9.31341 31.06 13.6201 31.28 15.0267C28.661 16.4527 26.1794 18.1176 23.8667 20.0001V18.2601C23.8263 18.1216 23.7421 18 23.6267 17.9134C23.5113 17.8269 23.3709 17.7801 23.2267 17.7801C23.0824 17.7801 22.9421 17.8269 22.8267 17.9134C22.7113 18 22.6271 18.1216 22.5867 18.2601V21.4667C22.5975 21.5898 22.6423 21.7074 22.7161 21.8064C22.7899 21.9054 22.8897 21.982 23.0045 22.0277C23.1192 22.0733 23.2444 22.0862 23.366 22.0648C23.4877 22.0435 23.601 21.9887 23.6933 21.9067C26.36 19.1201 32.2267 15.9734 32.2867 15.9401C32.4023 15.8748 32.4958 15.7765 32.5552 15.6577C32.6146 15.5389 32.6372 15.4051 32.62 15.2734C32.62 15.2201 31.7533 10.2001 32.2 7.12008C32.6316 7.25221 33.0876 7.28413 33.5333 7.21341C34.1379 7.18246 34.7209 6.97886 35.2133 6.62675C35.7467 7.86008 35.98 12.2801 35.7267 17.0734C35.7267 17.3534 35.6533 17.7401 35.0267 18.3667L34.98 18.4001C34.1644 19.1592 33.2705 19.8296 32.3133 20.4001L28.88 22.4534C28.7544 22.5279 28.6567 22.6417 28.602 22.7771C28.5473 22.9125 28.5386 23.0622 28.5773 23.203C28.6159 23.3439 28.6997 23.4682 28.8158 23.5568C28.9319 23.6454 29.0739 23.6934 29.22 23.6934C29.3397 23.6934 29.4571 23.6611 29.56 23.6001L33 21.5467C34.0578 20.9214 35.0417 20.179 35.9333 19.3334V19.2934C36.2479 19.0206 36.5022 18.6853 36.6801 18.3088C36.858 17.9324 36.9556 17.523 36.9667 17.1067C37.2267 12.6667 37.2133 7.44008 36.0667 5.68675ZM31.3333 4.48675C31.4467 4.16008 32.0733 4.10008 32.2533 4.10008C32.4301 4.10008 32.5997 4.02984 32.7247 3.90482C32.8498 3.77979 32.92 3.61022 32.92 3.43341C32.92 3.2566 32.8498 3.08703 32.7247 2.96201C32.5997 2.83698 32.4301 2.76675 32.2533 2.76675C32.0634 2.76425 31.8736 2.77987 31.6867 2.81341C31.6858 2.6091 31.7566 2.41094 31.8867 2.25341C32.022 2.14058 32.1808 2.05931 32.3514 2.01549C32.5221 1.97167 32.7004 1.96641 32.8733 2.00008C33.7761 2.0877 34.6155 2.50269 35.2333 3.16675C35.3214 3.43675 35.3497 3.72265 35.3163 4.00467C35.2829 4.28669 35.1886 4.55809 35.04 4.80008C34.9455 4.99705 34.8194 5.17722 34.6667 5.33341C34.4292 5.52734 34.164 5.68463 33.88 5.80008C33.7365 5.84195 33.589 5.86876 33.44 5.88008C33.0868 5.93433 32.7258 5.902 32.3878 5.78588C32.0499 5.66975 31.7452 5.4733 31.5 5.21341C31.4177 5.11355 31.3598 4.99589 31.3309 4.86976C31.3019 4.74363 31.3028 4.61249 31.3333 4.48675Z" fill="#4F5661"/>
</svg>
