<svg width="40" height="40" viewBox="0 0 40 40" fill="none" xmlns="http://www.w3.org/2000/svg">
<path d="M2.15805 23.6675L3.13072 27.7321C4.37738 32.9561 8.42338 36.9481 13.5067 37.9721C15.5467 38.3775 17.5827 38.5975 19.6314 38.5975C21.636 38.5975 23.666 38.3888 25.674 38.0041C30.782 37.0375 34.8674 33.0201 36.132 27.7515L37.1107 23.6675C37.1301 23.5869 37.1334 23.5033 37.1205 23.4215C37.1076 23.3397 37.0787 23.2612 37.0355 23.1905C36.9923 23.1198 36.9355 23.0584 36.8685 23.0097C36.8015 22.9609 36.7256 22.9258 36.6451 22.9065C36.5645 22.8871 36.4809 22.8837 36.3991 22.8966C36.3173 22.9095 36.2388 22.9384 36.1681 22.9817C36.0974 23.0249 36.036 23.0817 35.9872 23.1486C35.9385 23.2156 35.9034 23.2916 35.8841 23.3721L34.9047 27.4561C33.7547 32.2481 30.0514 35.8888 25.438 36.7628C23.5047 37.1328 21.5527 37.3335 19.6314 37.3335C17.67 37.3335 15.7147 37.1221 13.754 36.7321C9.15938 35.8068 5.49205 32.1881 4.35805 27.4381L3.38538 23.3721C3.34631 23.2095 3.24421 23.069 3.10156 22.9816C2.95891 22.8942 2.78738 22.867 2.62472 22.9061C2.46205 22.9452 2.32157 23.0473 2.23418 23.1899C2.14678 23.3326 2.11964 23.5041 2.15872 23.6668L2.15805 23.6675Z" fill="#4B5E69"/>
<path fill-rule="evenodd" clip-rule="evenodd" d="M8.27345 24.6895C8.27345 24.6895 7.64278 22.7928 7.64278 19.6321L4.18545 20.8641C4.18545 20.8641 1.53878 21.1795 2.02345 22.6801C2.50745 24.1801 8.27345 24.6895 8.27345 24.6895ZM30.9881 24.6895C30.9881 24.6895 31.3695 22.1268 32.0001 20.5015L34.6414 20.9015C34.6414 20.9015 37.7748 21.2141 37.2348 22.6995C36.6954 24.1848 30.9881 24.6895 30.9881 24.6895Z" fill="#D3E5EF"/>
<path d="M3.35465 28.3408C3.62331 28.8214 4.22798 29.4888 5.26331 30.1361C6.42331 30.8608 7.89731 31.3868 9.71665 31.6374C9.7989 31.6487 9.88257 31.6437 9.96288 31.6227C10.0432 31.6016 10.1186 31.565 10.1847 31.5148C10.2509 31.4646 10.3065 31.4019 10.3484 31.3302C10.3903 31.2586 10.4177 31.1793 10.429 31.0971C10.4403 31.0148 10.4353 30.9312 10.4142 30.8509C10.3932 30.7705 10.3565 30.6952 10.3063 30.629C10.2562 30.5629 10.1935 30.5073 10.1218 30.4653C10.0501 30.4234 9.9709 30.3961 9.88865 30.3848C8.24331 30.1581 6.93865 29.6921 5.93131 29.0628C5.43265 28.7514 5.04265 28.4221 4.74798 28.0974C4.63885 27.9827 4.54106 27.8577 4.45598 27.7241C4.41568 27.6516 4.36147 27.5878 4.29647 27.5364C4.23146 27.4849 4.15694 27.4468 4.07716 27.4242C3.99739 27.4016 3.91394 27.3949 3.8316 27.4046C3.74925 27.4143 3.66964 27.4402 3.59731 27.4808C3.45139 27.5629 3.34393 27.6995 3.29845 27.8607C3.25298 28.0218 3.27318 28.1945 3.35465 28.3408ZM24.8953 34.8041C24.9833 34.8008 25.142 34.7921 25.3613 34.7754C25.761 34.7447 26.1598 34.7036 26.5573 34.6521C27.7946 34.4934 29.0333 34.2428 30.1953 33.8788C32.6286 33.1161 34.418 31.9614 35.2633 30.2908C35.3387 30.1413 35.3519 29.968 35.2999 29.8089C35.248 29.6497 35.1351 29.5176 34.986 29.4414C34.9121 29.4039 34.8315 29.3814 34.7489 29.375C34.6663 29.3686 34.5833 29.3786 34.5045 29.4044C34.4258 29.4301 34.3529 29.4712 34.29 29.5251C34.2271 29.579 34.1754 29.6449 34.138 29.7188C33.4793 31.0194 31.9586 32.0014 29.8186 32.6721C28.7346 33.0114 27.566 33.2481 26.3966 33.3988C25.9866 33.4508 25.6066 33.4888 25.266 33.5148C25.064 33.5301 24.922 33.5381 24.8493 33.5408C24.6818 33.5469 24.5235 33.6193 24.4094 33.742C24.2952 33.8648 24.2345 34.0279 24.2406 34.1954C24.2467 34.363 24.3191 34.5212 24.4419 34.6353C24.5647 34.7495 24.7278 34.8102 24.8953 34.8041ZM17.59 31.0068C17.8968 31.0397 18.2042 31.0671 18.512 31.0888C20.9186 31.2581 23.5613 31.1928 26.064 30.7234C26.6011 30.6235 27.1338 30.5012 27.6606 30.3568C27.8223 30.3124 27.9598 30.2056 28.0427 30.0599C28.1257 29.9142 28.1474 29.7415 28.103 29.5798C28.0586 29.4181 27.9518 29.2806 27.8061 29.1977C27.6604 29.1147 27.4877 29.093 27.326 29.1374C26.833 29.2726 26.3345 29.3871 25.832 29.4808C23.4513 29.9274 20.9093 29.9894 18.6 29.8274C18.3129 29.8073 18.0262 29.7819 17.74 29.7514C17.6576 29.7415 17.574 29.748 17.494 29.7704C17.4141 29.7928 17.3394 29.8307 17.2741 29.882C17.2088 29.9333 17.1543 29.9969 17.1136 30.0693C17.0729 30.1417 17.0469 30.2213 17.037 30.3038C17.0271 30.3862 17.0335 30.4698 17.0559 30.5497C17.0783 30.6296 17.1163 30.7044 17.1675 30.7697C17.2711 30.9015 17.4228 30.9868 17.5893 31.0068H17.59ZM31.4753 20.5388C34.7306 21.1254 36.6666 21.9761 36.6666 22.4768C36.6666 22.9381 34.9553 23.7348 32 24.3161C28.7526 24.9548 24.3413 25.3221 19.6306 25.3221C14.92 25.3221 10.5093 24.9554 7.26131 24.3154C4.30665 23.7348 2.59465 22.9381 2.59465 22.4768C2.59465 21.9761 4.53198 21.1254 7.79131 20.5388C7.95367 20.5065 8.09689 20.4118 8.19019 20.2751C8.28348 20.1384 8.31941 19.9705 8.29024 19.8075C8.26108 19.6446 8.16915 19.4996 8.03422 19.4037C7.89928 19.3078 7.73211 19.2687 7.56865 19.2948C3.60598 20.0074 1.33331 21.0054 1.33331 22.4768C1.33331 25.0068 9.35998 26.5861 19.6306 26.5861C29.9013 26.5861 37.9286 25.0068 37.9286 22.4768C37.9286 21.0061 35.6566 20.0074 31.6993 19.2948C31.6176 19.2801 31.5338 19.2817 31.4527 19.2994C31.3715 19.3171 31.2947 19.3507 31.2266 19.3981C31.1584 19.4455 31.1002 19.5059 31.0554 19.5758C31.0106 19.6457 30.98 19.7237 30.9653 19.8054C30.9506 19.8872 30.9522 19.971 30.97 20.0521C30.9877 20.1332 31.0212 20.21 31.0686 20.2782C31.116 20.3463 31.1764 20.4045 31.2463 20.4493C31.3162 20.4941 31.3943 20.5248 31.476 20.5394L31.4753 20.5388Z" fill="#4B5E69"/>
<path fill-rule="evenodd" clip-rule="evenodd" d="M22.785 16.2599C22.785 14.8633 21.8844 14.0426 19.8624 13.5999C18.099 13.2199 17.9624 12.8479 17.9624 12.3639C17.9624 11.8106 18.5177 11.4246 19.3124 11.4246C20.079 11.4246 20.7457 11.6779 21.4084 12.2213L21.7057 12.4666L22.685 11.1633L22.405 10.9366C21.687 10.3579 20.979 10.0339 20.143 9.91326V8.78726C20.1431 8.71713 20.1294 8.64768 20.1027 8.58286C20.0759 8.51804 20.0366 8.45912 19.9871 8.40947C19.9376 8.35982 19.8788 8.32041 19.814 8.2935C19.7493 8.26658 19.6798 8.25268 19.6097 8.25259H19.0784C18.9369 8.25295 18.8013 8.30946 18.7014 8.40971C18.6015 8.50996 18.5455 8.64575 18.5457 8.78726V9.94726C17.2177 10.2259 16.3124 11.1953 16.3124 12.4673C16.3124 14.2693 17.7557 14.8326 19.3177 15.1739C20.997 15.5306 21.1224 15.8806 21.1224 16.3753C21.1224 16.9686 20.5357 17.3839 19.6937 17.3839C18.7244 17.3839 17.9937 17.0786 17.1724 16.3319L16.889 16.0739L15.8444 17.3159L16.1137 17.5573C16.8684 18.2359 17.661 18.6513 18.5457 18.8373V20.0206C18.5455 20.0907 18.5592 20.1601 18.5859 20.2249C18.6125 20.2898 18.6517 20.3487 18.7012 20.3983C18.7507 20.448 18.8095 20.4874 18.8742 20.5143C18.9389 20.5413 19.0083 20.5552 19.0784 20.5553H19.6104C19.6804 20.5551 19.7497 20.5411 19.8144 20.5142C19.879 20.4872 19.9377 20.4478 19.9871 20.3981C20.0365 20.3485 20.0757 20.2896 20.1023 20.2248C20.1289 20.16 20.1426 20.0906 20.1424 20.0206V18.9139C21.7184 18.7353 22.785 17.7006 22.785 16.2599Z" fill="#5BBF89"/>
<path d="M31.8397 23.178C32.1104 21.698 32.2497 20.1733 32.2497 18.6267C32.2497 8.74666 26.659 0.666656 19.6304 0.666656C12.6017 0.666656 7.0117 8.74666 7.0117 18.6267C7.0117 20.154 7.1457 21.66 7.40837 23.118C7.42103 23.2015 7.4503 23.2815 7.49445 23.3535C7.5386 23.4254 7.59673 23.4878 7.6654 23.5369C7.73407 23.586 7.8119 23.6208 7.89427 23.6393C7.97663 23.6578 8.06187 23.6596 8.14494 23.6446C8.22801 23.6295 8.30723 23.598 8.3779 23.5518C8.44857 23.5057 8.50926 23.4458 8.55638 23.3757C8.6035 23.3057 8.6361 23.2269 8.65225 23.144C8.66839 23.0612 8.66775 22.9759 8.65037 22.8933C8.39827 21.4851 8.272 20.0573 8.27304 18.6267C8.27304 9.36666 13.4184 1.93066 19.6304 1.93066C25.843 1.93066 30.9877 9.36666 30.9877 18.6267C30.9888 20.0766 30.8584 21.5236 30.5984 22.95C30.5736 23.1123 30.613 23.2778 30.7082 23.4115C30.8034 23.5453 30.9469 23.6367 31.1084 23.6663C31.2699 23.696 31.4365 23.6616 31.5731 23.5704C31.7096 23.4792 31.8052 23.3385 31.8397 23.178Z" fill="#4B5E69"/>
</svg>
