<svg width="60" height="60" fill="none" xmlns="http://www.w3.org/2000/svg"><path fill-rule="evenodd" clip-rule="evenodd" d="M25.344 52.207c0-.533.432-.965.966-.965h7.724c.533 0 .965.432.965.965v2.897a.966.966 0 01-.965.965H26.31a.965.965 0 01-.966-.965v-2.897zm1.931.965v.967h5.793v-.967h-5.793z" fill="#4F5661"/><path d="M42.724 46.414H17.621c-.58 0-.966-.386-.966-.966V33.862c0-.58.386-.965.966-.965h25.103c.58 0 .966.386.966.965v11.586c0 .58-.387.966-.966.966z" fill="#D3E5EF"/><path fill-rule="evenodd" clip-rule="evenodd" d="M30.172 24.206c.533 0 .966.433.966.966v1.931h17.38c.532 0 .965.433.965.966v24.138a.965.965 0 01-.966.965h-36.69a.966.966 0 01-.965-.965V28.069c0-.533.432-.966.965-.966h17.38v-1.931c0-.533.432-.966.965-.966zm-.965 4.828H12.793v22.207h34.759V29.034H31.138v8.69a.965.965 0 11-1.931 0v-8.69z" fill="#4F5661"/><path d="M27.903 8.846H25.78v5.968h-1.816V8.846H21.84V7.295h6.064v1.55h-.001zm6.07 4.503h-1.03v1.465h-1.667V13.35h-3.537v-1.5l3.06-4.556h2.134v4.61h1.04v1.444zm-2.686-1.445V9.122h-.032l-1.785 2.782h1.817z" fill="#000"/><path d="M27.903 8.846H25.78v5.968h-1.816V8.846H21.84V7.295h6.064v1.55h-.001zm6.07 4.503h-1.03v1.465h-1.667V13.35h-3.537v-1.5l3.06-4.556h2.134v4.61h1.04v1.444zm-2.686-1.445V9.122h-.032l-1.785 2.782h1.817z" fill="#53C27C"/><path fill-rule="evenodd" clip-rule="evenodd" d="M39.828 1.034c.533 0 .966.433.966.966v4.827h4.827a.966.966 0 010 1.931h-5.793a.966.966 0 01-.965-.965V2c0-.533.432-.966.965-.966z" fill="#4F5661"/><path fill-rule="evenodd" clip-rule="evenodd" d="M13.758 2c0-.533.432-.966.966-.966h26.069c.256 0 .501.102.682.283l4.828 4.828a.965.965 0 01.283.683V21.31a.965.965 0 01-.965.965H14.724a.965.965 0 01-.966-.965V2zm1.931.965v17.38h28.966V7.227l-4.262-4.263H15.689zM6 52.207c0-.533.432-.965.965-.965h46.346c.533 0 .965.432.965.965v2.896c0 2.175-1.687 3.862-3.863 3.862H9.864C7.686 58.965 6 57.279 6 55.103v-2.896zm1.931.965v1.931c0 1.109.823 1.931 1.932 1.931h40.55c1.11 0 1.932-.822 1.932-1.931v-1.93H7.931z" fill="#4F5661"/><path d="M25.36 34c.255 0 .498.1.68.279l4.12 4.077 4.122-4.078a.967.967 0 011.566.308.943.943 0 01-.209 1.037l-4.8 4.75a.967.967 0 01-1.357 0l-4.8-4.75a.943.943 0 010-1.344.967.967 0 01.678-.279z" fill="#4F5661"/></svg>