<svg width="40" height="40" viewBox="0 0 40 40" fill="none" xmlns="http://www.w3.org/2000/svg">
<path d="M29.3348 30.0507C29.3348 30.0507 24.8222 35.3687 20.3102 36.0333L22.8882 29.3867L21.5995 26.7267H22.8882L21.9862 23.8687C21.9862 23.8687 25.3382 24.2013 27.4655 27.392L29.3348 30.0507Z" fill="#D3E5EF"/>
<path d="M0.90686 30.0507C0.90686 30.0507 5.41953 35.3687 9.93153 36.0333L7.35286 29.3867L8.64219 26.7267H7.35286L8.25553 23.8687C8.25553 23.8687 4.90353 24.2013 2.77619 27.392L0.90686 30.0507Z" fill="#D3E5EF"/>
<path d="M8.4548 24.66C8.35659 24.7359 8.2385 24.7818 8.1148 24.792C6.65613 24.912 5.0788 25.7753 3.9468 27.124L3.3088 27.7813L1.11747 30.108C1.05908 30.1704 0.988797 30.2206 0.910753 30.2555C0.832708 30.2904 0.748477 30.3093 0.663011 30.3112C0.577545 30.313 0.492569 30.2978 0.413079 30.2663C0.333588 30.2349 0.261188 30.1878 0.200134 30.128C0.0756737 30.0061 0.00389162 29.8403 0.000153625 29.6661C-0.00358437 29.4919 0.0610188 29.3232 0.180134 29.196L2.3788 26.8627L2.99147 26.2333C4.2608 24.7173 6.0648 23.7013 7.81547 23.4973L7.92747 23.4107C7.9762 23.373 8.03008 23.3424 8.08747 23.32L10.9888 22.19C11.0787 22.1557 11.1752 22.1419 11.2711 22.1495C11.367 22.1571 11.4601 22.186 11.5434 22.2341C11.6268 22.2821 11.6984 22.3482 11.7531 22.4274C11.8078 22.5066 11.8441 22.597 11.8595 22.692L14.2448 36.5847C14.3061 36.9433 14.0701 36.63 13.7175 36.6927C13.3641 36.7553 13.0288 37.17 12.9668 36.8113L10.7175 23.708L8.6388 24.5173L8.4548 24.6593V24.66Z" fill="#4F5661"/>
<path d="M11.8508 25.6667C11.7033 25.5741 11.598 25.4274 11.5573 25.258C11.5167 25.0887 11.5441 24.9101 11.6335 24.7607C11.6769 24.687 11.7347 24.6228 11.8032 24.5718C11.8718 24.5207 11.9499 24.4839 12.0329 24.4634C12.1159 24.4429 12.2022 24.4392 12.2867 24.4525C12.3711 24.4657 12.4521 24.4957 12.5248 24.5407C12.8118 24.71 13.1083 24.8627 13.4128 24.998C13.7791 25.165 14.1618 25.2933 14.5548 25.3807C14.7495 25.4207 14.9288 25.4413 15.0881 25.4413C15.2988 25.4413 15.5241 25.4247 15.8281 25.366C16.3161 25.2735 16.7835 25.0942 17.2081 24.8367C17.3601 24.7433 17.5061 24.64 17.6448 24.5253C17.7107 24.4708 17.7868 24.43 17.8686 24.4052C17.9505 24.3805 18.0365 24.3724 18.1215 24.3815C18.2065 24.3905 18.2889 24.4164 18.3638 24.4577C18.4387 24.499 18.5045 24.5549 18.5575 24.622C18.6657 24.7583 18.7163 24.9316 18.6985 25.1048C18.6807 25.2779 18.5959 25.4372 18.4621 25.5487C18.2755 25.7033 18.0801 25.842 17.8768 25.9667C17.3217 26.3042 16.7104 26.5393 16.0721 26.6607C15.7485 26.7268 15.4191 26.7603 15.0888 26.7607C14.8361 26.7607 14.5721 26.73 14.2968 26.6733C13.8148 26.5675 13.3453 26.4111 12.8961 26.2067C12.5374 26.0474 12.1883 25.8671 11.8508 25.6667ZM7.35281 27.3867C6.93214 27.3867 6.62281 26.9853 6.72348 26.5693L7.36814 23.9107C7.38756 23.8272 7.42334 23.7485 7.47339 23.6789C7.52345 23.6094 7.58679 23.5505 7.65977 23.5056C7.73274 23.4607 7.81389 23.4308 7.89852 23.4174C7.98315 23.4041 8.06958 23.4077 8.15281 23.428C8.32108 23.4717 8.46532 23.58 8.5542 23.7294C8.64307 23.8788 8.66941 24.0573 8.62748 24.226L8.18081 26.068H9.28748C9.81948 26.068 10.1248 26.684 9.80814 27.1193L8.09681 29.4727L10.7841 35.7707C10.853 35.9305 10.8563 36.111 10.7934 36.2733C10.7304 36.4355 10.6062 36.5665 10.4475 36.638C10.3691 36.6723 10.2847 36.6907 10.1991 36.692C10.1135 36.6934 10.0286 36.6777 9.94914 36.6458C9.86971 36.614 9.79741 36.5667 9.73647 36.5066C9.67552 36.4466 9.62714 36.375 9.59414 36.296L6.75814 29.6487C6.71281 29.5425 6.69575 29.4264 6.7086 29.3117C6.72145 29.197 6.76378 29.0875 6.83148 28.994L8.00081 27.3867H7.35281Z" fill="#4F5661"/>
<path d="M17.3402 36.736C17.3276 36.8208 17.2983 36.9022 17.2541 36.9756C17.2099 37.0491 17.1516 37.113 17.0826 37.1638C17.0135 37.2147 16.9352 37.2513 16.8519 37.2717C16.7687 37.2921 16.6822 37.2958 16.5975 37.2827C16.4263 37.2533 16.2736 37.1574 16.1728 37.0159C16.072 36.8744 16.0313 36.6988 16.0595 36.5273L18.2515 22.634C18.2655 22.5391 18.3004 22.4485 18.3537 22.3687C18.4069 22.289 18.4772 22.222 18.5595 22.1727C18.6418 22.1234 18.734 22.093 18.8294 22.0837C18.9249 22.0743 19.0212 22.0863 19.1115 22.1187L22.2048 23.2487C22.2672 23.2714 22.3256 23.3035 22.3782 23.344L22.5015 23.4387C23.0275 23.5187 23.5855 23.656 24.1282 23.8427C24.2922 23.9006 24.4268 24.0208 24.5029 24.1773C24.579 24.3337 24.5905 24.5138 24.5348 24.6787C24.5085 24.7602 24.4662 24.8356 24.4104 24.9006C24.3546 24.9656 24.2865 25.0189 24.2099 25.0573C24.1334 25.0958 24.05 25.1187 23.9645 25.1246C23.8791 25.1306 23.7933 25.1195 23.7122 25.092C23.209 24.9177 22.6898 24.794 22.1622 24.7227C22.049 24.7079 21.9417 24.6633 21.8515 24.5933L21.6728 24.4553L19.4082 23.6287L17.3402 36.736Z" fill="#4F5661"/>
<path d="M6.11618 33.59C6.11818 33.5905 6.12018 33.5909 6.12218 33.5913L6.11618 33.59ZM15.1528 36.0387C18.2195 36.0387 21.0835 35.292 23.6742 33.8587C23.7491 33.8174 23.8315 33.7914 23.9166 33.7824C24.0016 33.7733 24.0877 33.7813 24.1696 33.8059C24.2516 33.8305 24.3278 33.8711 24.3938 33.9255C24.4598 33.9799 24.5144 34.047 24.5542 34.1227C24.6366 34.2762 24.6555 34.4558 24.6069 34.6231C24.5583 34.7904 24.446 34.9319 24.2942 35.0173C21.5178 36.5589 18.3931 37.3644 15.2175 37.3573C11.8482 37.3573 8.66551 36.484 5.75418 34.8547C5.64612 34.8149 5.54934 34.7495 5.47218 34.664C3.62684 33.5887 1.93418 32.1213 0.574177 30.4473C0.493272 30.3632 0.419256 30.2727 0.352844 30.1767C0.322231 30.1316 0.288363 30.0888 0.251511 30.0487C0.130446 29.9232 0.0633461 29.7553 0.0645922 29.581C0.0658384 29.4066 0.135332 29.2397 0.258177 29.116C0.318352 29.0553 0.39005 29.0073 0.469056 28.9747C0.548063 28.9421 0.632786 28.9256 0.718247 28.9263C0.803708 28.9269 0.888183 28.9446 0.966708 28.9783C1.04523 29.012 1.11622 29.0611 1.17551 29.1227C1.25684 29.2067 1.30618 29.2693 1.39551 29.3927C1.45084 29.4687 1.47151 29.4947 1.53551 29.564C2.86884 31.2013 4.49151 32.5953 6.25151 33.5973C6.30484 33.6273 6.35351 33.664 6.39551 33.7073C9.11551 35.2273 12.0788 36.0387 15.1528 36.0387Z" fill="#4F5661"/>
<path d="M21.6141 24.2267C21.572 24.0579 21.5982 23.8792 21.6871 23.7297C21.776 23.5801 21.9203 23.4717 22.0888 23.428C22.172 23.4077 22.2584 23.4041 22.3431 23.4174C22.4277 23.4308 22.5088 23.4607 22.5818 23.5056C22.6548 23.5505 22.7181 23.6094 22.7682 23.6789C22.8182 23.7485 22.854 23.8272 22.8734 23.9107L23.5181 26.5693C23.6188 26.9853 23.3094 27.3867 22.8881 27.3867H22.2408L23.4101 28.994C23.5474 29.1833 23.5754 29.4327 23.4834 29.6487L20.6468 36.2953C20.6138 36.3744 20.5655 36.446 20.5046 36.5062C20.4437 36.5663 20.3714 36.6137 20.2919 36.6456C20.2125 36.6775 20.1275 36.6932 20.0419 36.6919C19.9563 36.6906 19.8719 36.6723 19.7934 36.638C19.6349 36.5665 19.5108 36.4356 19.4478 36.2735C19.3849 36.1114 19.3881 35.9311 19.4568 35.7713L22.1448 29.4727L20.4328 27.1193C20.1168 26.684 20.4221 26.068 20.9548 26.068H22.0608L21.6141 24.226V24.2267Z" fill="#4F5661"/>
<path d="M32.4467 38.0274C37.668 36.3654 38.8933 32.8427 38.8933 32.8427V24.8661L32.4467 22.0741L26 24.8661V32.8427C26 32.8427 27.2253 36.7647 32.4467 38.0274Z" fill="#D52B1E"/>
<path d="M36.6367 27.9901L35.7354 27.0601L31.5447 31.5134L29.482 29.4534L28.644 30.4507L31.2874 32.9761L31.6094 33.3087L36.6367 27.9901Z" fill="white"/>
<path fill-rule="evenodd" clip-rule="evenodd" d="M35.733 26.7357C35.8216 26.7351 35.9066 26.7707 35.9683 26.8343L36.8696 27.7643C36.9904 27.889 36.9917 28.0867 36.8724 28.2128L31.8451 33.5315C31.7843 33.5958 31.6998 33.6325 31.6113 33.633C31.5228 33.6336 31.4379 33.5979 31.3763 33.5343L31.0587 33.2062L28.42 30.6852C28.2963 30.567 28.2857 30.3731 28.3957 30.2421L29.2337 29.2447C29.2922 29.1752 29.3771 29.1333 29.4679 29.1294C29.5587 29.1254 29.6469 29.1597 29.7112 29.2239L31.5375 31.0478L35.4992 26.8378C35.5599 26.7733 35.6444 26.7364 35.733 26.7357ZM35.7388 27.5296L31.7809 31.7357C31.7208 31.7995 31.6374 31.8363 31.5497 31.8377C31.4621 31.839 31.3776 31.8048 31.3155 31.7429L29.503 29.9327L29.0881 30.4264L31.5114 32.7415C31.5145 32.7445 31.5175 32.7474 31.5204 32.7505L31.6066 32.8395L36.1878 27.9929L35.7388 27.5296Z" fill="white"/>
<path d="M11.8045 22.9427C11.8045 23.194 11.5145 23.398 11.1559 23.398C10.7979 23.398 10.5072 23.194 10.5072 22.9427V20.1847C10.5072 19.9327 10.7979 19.7287 11.1559 19.7287C11.5145 19.7287 11.8045 19.9327 11.8045 20.1847V22.9427Z" fill="#4F5661"/>
<path fill-rule="evenodd" clip-rule="evenodd" d="M18.8912 19.0613C19.2495 19.0613 19.5399 19.3517 19.5399 19.71V22.7386C19.5399 23.0969 19.2495 23.3873 18.8912 23.3873C18.533 23.3873 18.2426 23.0969 18.2426 22.7386V19.71C18.2426 19.3517 18.533 19.0613 18.8912 19.0613Z" fill="#4F5661"/>
<path d="M14.5059 12.3759C14.5059 12.6826 14.2613 12.9319 13.9593 12.9319C13.8869 12.9313 13.8153 12.9165 13.7486 12.8882C13.682 12.8599 13.6216 12.8188 13.5708 12.7672C13.52 12.7155 13.4799 12.6544 13.4528 12.5873C13.4257 12.5202 13.412 12.4483 13.4126 12.3759C13.4126 11.3406 14.2259 10.4953 15.2346 10.4953C16.2433 10.4953 17.0559 11.3406 17.0559 12.3759C17.0559 12.6826 16.8113 12.9319 16.5093 12.9319C16.4369 12.9313 16.3653 12.9165 16.2986 12.8882C16.232 12.8599 16.1716 12.8188 16.1208 12.7672C16.07 12.7155 16.0299 12.6544 16.0028 12.5873C15.9757 12.5202 15.962 12.4483 15.9626 12.3759C15.9626 11.9493 15.6333 11.6066 15.2346 11.6066C14.8353 11.6066 14.5059 11.9486 14.5059 12.3759ZM7.76595 11.7373C7.62782 11.6883 7.51452 11.5869 7.45053 11.455C7.38654 11.3232 7.37699 11.1714 7.42395 11.0326C7.44618 10.9639 7.48184 10.9004 7.52885 10.8456C7.57587 10.7908 7.6333 10.7459 7.69781 10.7136C7.76232 10.6812 7.83263 10.6619 7.90464 10.657C7.97665 10.652 8.04893 10.6614 8.11728 10.6846L8.78128 10.9139L10.3086 11.4366C10.5953 11.5346 10.7486 11.8499 10.6526 12.1413C10.6305 12.21 10.595 12.2736 10.5481 12.3285C10.5012 12.3834 10.4438 12.4283 10.3794 12.4609C10.3149 12.4934 10.2446 12.5127 10.1726 12.5178C10.1006 12.5229 10.0283 12.5137 9.95995 12.4906L8.43128 11.9673L7.76595 11.7373ZM20.3793 11.6399C20.2469 11.5774 20.1443 11.4654 20.0934 11.3281C20.0426 11.1908 20.0476 11.039 20.1073 10.9053C20.1361 10.8392 20.1778 10.7795 20.2299 10.7297C20.282 10.6798 20.3435 10.6409 20.4108 10.6151C20.4782 10.5892 20.55 10.5771 20.622 10.5793C20.6941 10.5815 20.765 10.5981 20.8306 10.6279L21.2679 10.8293L22.2773 11.2893C22.4103 11.3514 22.5136 11.4632 22.565 11.6008C22.6164 11.7383 22.6117 11.8905 22.5519 12.0246C22.5233 12.0908 22.4818 12.1506 22.4298 12.2006C22.3778 12.2506 22.3164 12.2897 22.2491 12.3157C22.1819 12.3417 22.1101 12.3541 22.038 12.352C21.9659 12.35 21.895 12.3337 21.8293 12.3039L20.8186 11.8426L20.3799 11.6406L20.3793 11.6399Z" fill="#4F5661"/>
<path d="M13.4126 12.376C13.4126 11.5827 12.7986 10.944 12.0473 10.944C11.2953 10.944 10.6806 11.5827 10.6806 12.376C10.6806 13.17 11.2953 13.8087 12.0473 13.8087C12.7986 13.8087 13.4126 13.17 13.4126 12.376ZM14.5059 12.376C14.5059 13.7787 13.4079 14.92 12.0473 14.92C10.6859 14.92 9.58728 13.7787 9.58728 12.376C9.58728 10.974 10.6859 9.83268 12.0473 9.83268C13.4079 9.83268 14.5059 10.974 14.5059 12.376ZM19.7879 12.376C19.7879 11.5827 19.1739 10.944 18.4219 10.944C17.6706 10.944 17.0559 11.5827 17.0559 12.376C17.0559 13.17 17.6706 13.8087 18.4219 13.8087C19.1739 13.8087 19.7879 13.17 19.7879 12.376ZM20.8813 12.376C20.8813 13.7787 19.7833 14.92 18.4219 14.92C17.0613 14.92 15.9626 13.7787 15.9626 12.376C15.9626 10.974 17.0613 9.83268 18.4219 9.83268C19.7833 9.83268 20.8813 10.974 20.8813 12.376Z" fill="#4F5661"/>
<path fill-rule="evenodd" clip-rule="evenodd" d="M21.7641 6.84662C20.8041 3.67328 18.4907 1.38395 15.0194 1.38395C10.7674 1.38395 7.94141 4.85728 7.94141 9.13062C7.94141 9.13062 9.15807 9.12461 11.4681 6.80395C12.6287 7.68012 13.9421 8.33277 15.3414 8.72862C18.7327 9.68062 20.9607 9.56328 22.1441 9.13928" fill="#D3E5EF"/>
<path d="M11.5364 7.732C10.647 8.56866 9.84969 9.138 9.14635 9.48333C8.60835 9.748 8.20435 9.84666 7.94502 9.848C7.85129 9.84756 7.75857 9.82862 7.67218 9.79227C7.58579 9.75592 7.50743 9.70287 7.44159 9.63616C7.37574 9.56945 7.32372 9.4904 7.2885 9.40354C7.25328 9.31668 7.23556 9.22372 7.23635 9.13C7.23635 4.34066 10.4797 0.666664 15.0197 0.666664C18.6397 0.666664 21.329 2.96933 22.4397 6.63666C22.4952 6.81755 22.4774 7.01303 22.3899 7.18084C22.3024 7.34864 22.1524 7.47527 21.9724 7.53333C21.8833 7.56066 21.7897 7.57004 21.697 7.56093C21.6042 7.55181 21.5142 7.52438 21.4322 7.48023C21.3502 7.43608 21.2777 7.37608 21.219 7.30372C21.1603 7.23135 21.1166 7.14806 21.0904 7.05866C20.1524 3.96 17.9797 2.10133 15.0197 2.10133C11.6204 2.10133 9.11769 4.60066 8.70702 8.10133C9.34035 7.75666 10.0964 7.174 10.9724 6.29466C11.0912 6.17424 11.2498 6.10114 11.4186 6.089C11.5874 6.07686 11.7548 6.1265 11.8897 6.22866C12.9794 7.05348 14.214 7.66674 15.5297 8.03666C18.4124 8.846 20.639 8.91866 21.9097 8.46333C22.369 8.298 22.8504 8.64466 22.8504 9.13933V13.632C22.8504 17.9213 18.603 22.0873 15.0437 22.0873C11.467 22.0873 7.23635 17.9287 7.23635 13.632V11.386C7.23635 10.99 7.55235 10.6687 7.94169 10.6687C8.33169 10.6687 8.64835 10.99 8.64835 11.386V13.632C8.64835 17.1253 12.2357 20.652 15.043 20.652C17.8344 20.652 21.439 17.1167 21.439 13.632V10.0587C19.877 10.328 17.727 10.1427 15.1537 9.42C13.8641 9.05779 12.6423 8.48764 11.5364 7.732Z" fill="#4F5661"/>
</svg>
