<svg width="40" height="40" viewBox="0 0 40 40" fill="none" xmlns="http://www.w3.org/2000/svg">
<path d="M34.6666 12H4.66663V32H34.6666V12Z" fill="white"/>
<path d="M0.666626 32H38.6666V36C38.6666 36.3682 38.3682 36.6667 38 36.6667H1.33329C0.965099 36.6667 0.666626 36.3682 0.666626 36V32Z" fill="white"/>
<path fill-rule="evenodd" clip-rule="evenodd" d="M30.0775 28.0573H9.2555C8.88416 28.0573 8.5835 27.7566 8.5835 27.3846V17.0359C8.5835 16.6646 8.88416 16.3633 9.2555 16.3633H30.0775C30.4488 16.3633 30.7502 16.6646 30.7502 17.0359V27.3846C30.7502 27.7566 30.4488 28.0573 30.0775 28.0573Z" fill="#CFE6F0"/>
<path fill-rule="evenodd" clip-rule="evenodd" d="M38 34.9831C38 35.6978 37.418 36.2798 36.7033 36.2798H2.63C1.91533 36.2798 1.33333 35.6978 1.33333 34.9831V32.8631H4.62467H15.8333V34.5718C15.8333 34.9405 16.1313 35.2385 16.5 35.2385H22.8333C23.202 35.2385 23.5 34.9405 23.5 34.5718V32.8631H34.7087H38V34.9831ZM17.1667 33.9051H22.1667V32.8638H17.1667V33.9051ZM38.6667 31.5298H35.3747V21.8318C35.3747 21.4638 35.0767 21.1651 34.7087 21.1651C34.34 21.1651 34.042 21.4638 34.042 21.8318V31.5298H22.8333H16.5H5.29133V13.0718H20.0633C20.4313 13.0718 20.73 12.7738 20.73 12.4051C20.73 12.0365 20.4313 11.7385 20.0633 11.7385H4.62467C4.25667 11.7385 3.958 12.0365 3.958 12.4051V31.5298H0.666667C0.298 31.5298 0 31.8285 0 32.1965V34.9831C0 36.4338 1.18 37.6131 2.63 37.6131H36.7033C38.1533 37.6131 39.3333 36.4338 39.3333 34.9831V32.1965C39.3333 31.8285 39.0353 31.5298 38.6667 31.5298Z" fill="#4F5661"/>
<path d="M38 5.33334H23.3333C22.9651 5.33334 22.6666 5.63182 22.6666 6.00001V18C22.6666 18.3682 22.9651 18.6667 23.3333 18.6667H38C38.3682 18.6667 38.6666 18.3682 38.6666 18V6.00001C38.6666 5.63182 38.3682 5.33334 38 5.33334Z" fill="white"/>
<path fill-rule="evenodd" clip-rule="evenodd" d="M24.1023 4.8667H37.2302C38.3897 4.8667 39.3333 5.8186 39.3333 6.9884V17.7673C39.3333 18.937 38.3897 19.8889 37.2302 19.8889H24.1023C22.9428 19.8889 22 18.937 22 17.7673V6.9884C22 5.8186 22.9428 4.8667 24.1023 4.8667ZM24.1023 6.02281H37.2302C37.7578 6.02281 38.1873 6.45615 38.1873 6.9884V16.6497H35.5423L35.5416 16.6405C35.436 15.2623 35.3563 14.2236 34.1668 13.9725C32.8646 13.6967 32.2111 13.5681 32.2111 13.5681L30.6667 15.1961L29.1214 13.5681C29.1214 13.5681 28.4679 13.6967 27.1657 13.9725C25.9762 14.2234 25.8967 15.2609 25.7911 16.6377L25.7902 16.6497H23.1452V6.9884C23.1452 6.45615 23.5747 6.02281 24.1023 6.02281ZM33.0495 11.0356C33.0495 12.3855 31.9617 13.4837 30.6229 13.4837C29.284 13.4837 28.1962 12.3855 28.1962 11.0356V9.80387C28.1962 8.4532 29.284 7.355 30.6229 7.355C31.9617 7.355 33.0495 8.4532 33.0495 9.80387V11.0356ZM28.8789 9.63847H28.8789C28.8715 9.69273 28.864 9.7472 28.864 9.80387V11.0356C28.864 12.014 29.6529 12.8099 30.6229 12.8099C31.5927 12.8099 32.3817 12.014 32.3817 11.0356V9.80387C32.3817 9.6664 32.3625 9.53373 32.3331 9.40513C31.6843 9.69373 30.0897 9.41313 29.5167 8.92673C29.4609 9.21053 29.1127 9.4678 28.8863 9.582C28.8841 9.60087 28.8815 9.6196 28.8789 9.6384V9.63847Z" fill="#055393"/>
</svg>
