<svg width="103" height="19" viewBox="0 0 103 19" fill="none" xmlns="http://www.w3.org/2000/svg">
<path d="M9 18C13.9706 18 18 13.9706 18 9C18 4.02944 13.9706 0 9 0C4.02944 0 0 4.02944 0 9C0 13.9706 4.02944 18 9 18Z" fill="#2CA01C"/>
<path fill-rule="evenodd" clip-rule="evenodd" d="M11.5009 5.50024H12.0009C13.9339 5.50024 15.5009 7.06725 15.5009 9.00022C15.5009 10.9333 13.9339 12.5003 12.0009 12.5003H9.49929V3.10034C10.2173 3.10034 10.7994 3.68236 10.7994 4.40028V11.2003H12.0009C13.2139 11.2003 14.2008 10.2134 14.2008 9.00022C14.2008 7.78725 13.2139 6.80035 12.0009 6.80035H11.5009V5.50024ZM5.99919 12.4998C4.06604 12.4998 2.49915 10.9328 2.49915 8.99972C2.49915 7.06685 4.06604 5.49974 5.99919 5.49974H8.50068V14.8997C7.78265 14.8997 7.20068 14.3178 7.20068 13.5997V6.79973H5.99919C4.78604 6.79973 3.79909 7.78663 3.79909 8.99972C3.79909 10.2129 4.78604 11.1998 5.99919 11.1998H6.4992V12.4998H5.99919Z" fill="white"/>
<path d="M29.632 13.736V18.84H30.72V7.512H29.632V8.808H29.584C28.96 7.832 27.84 7.32 26.768 7.32C24.432 7.32 22.896 9.048 22.896 11.256C22.896 13.464 24.432 15.192 26.768 15.192C27.84 15.192 28.96 14.664 29.584 13.736H29.632ZM24.048 11.256C24.048 9.592 25.072 8.232 26.88 8.232C28.56 8.232 29.76 9.544 29.76 11.256C29.76 12.968 28.56 14.264 26.88 14.264C25.072 14.264 24.048 12.92 24.048 11.256ZM39.6763 15C39.6283 14.488 39.6123 13.752 39.6123 13.352V7.512H38.5243V11.352C38.5243 13.352 37.4043 14.28 36.2523 14.28C34.6843 14.28 34.2203 13.224 34.2203 11.656V7.512H33.1323V12.104C33.1323 13.96 34.0763 15.192 35.9803 15.192C37.0363 15.192 38.1243 14.584 38.5403 13.72H38.5723C38.5723 14.04 38.6043 14.6 38.6363 15H39.6763ZM43.1971 7.512H42.1091V15H43.1971V7.512ZM43.4211 4.632C43.4211 4.184 43.0371 3.864 42.6531 3.864C42.2691 3.864 41.8851 4.184 41.8851 4.632C41.8851 5.08 42.2691 5.4 42.6531 5.4C43.0371 5.4 43.4211 5.08 43.4211 4.632ZM51.9331 8.616C51.2931 7.752 50.1571 7.32 49.1491 7.32C46.7331 7.32 45.1491 9 45.1491 11.256C45.1491 13.512 46.7331 15.192 49.1491 15.192C50.4451 15.192 51.3571 14.68 51.9971 13.896L51.1811 13.288C50.7491 13.864 50.0931 14.264 49.1491 14.264C47.4051 14.264 46.3011 12.952 46.3011 11.256C46.3011 9.544 47.4211 8.232 49.1651 8.232C49.9811 8.232 50.7331 8.648 51.0851 9.224L51.9331 8.616ZM54.4131 2.904H53.3251V15H54.4131V11.064H54.4611L58.2691 15H59.8691L55.7091 10.936L59.4851 7.512H57.9171L54.4611 10.888H54.4131V2.904ZM62.2014 13.736C62.8414 14.68 63.9614 15.192 65.0334 15.192C67.3694 15.192 68.9054 13.464 68.9054 11.256C68.9054 9.048 67.3694 7.32 65.0334 7.32C63.9614 7.32 62.8414 7.832 62.2014 8.808H62.1694V2.904H61.0814V15H62.1694V13.736H62.2014ZM67.7534 11.256C67.7534 12.92 66.7294 14.264 64.9214 14.264C63.2414 14.264 62.0414 12.968 62.0414 11.256C62.0414 9.544 63.2414 8.232 64.9214 8.232C66.7294 8.232 67.7534 9.592 67.7534 11.256ZM78.2769 11.256C78.2769 9 76.6129 7.32 74.2769 7.32C71.9569 7.32 70.2929 9 70.2929 11.256C70.2929 13.512 71.9569 15.192 74.2769 15.192C76.6129 15.192 78.2769 13.512 78.2769 11.256ZM77.1249 11.256C77.1249 12.936 76.0209 14.264 74.2769 14.264C72.5489 14.264 71.4449 12.936 71.4449 11.256C71.4449 9.576 72.5489 8.232 74.2769 8.232C76.0209 8.232 77.1249 9.576 77.1249 11.256ZM87.6581 11.256C87.6581 9 85.9941 7.32 83.6581 7.32C81.3381 7.32 79.6741 9 79.6741 11.256C79.6741 13.512 81.3381 15.192 83.6581 15.192C85.9941 15.192 87.6581 13.512 87.6581 11.256ZM86.5061 11.256C86.5061 12.936 85.4021 14.264 83.6581 14.264C81.9301 14.264 80.8261 12.936 80.8261 11.256C80.8261 9.576 81.9301 8.232 83.6581 8.232C85.4021 8.232 86.5061 9.576 86.5061 11.256ZM90.7194 2.904H89.6314V15H90.7194V11.064H90.7674L94.5754 15H96.1754L92.0154 10.936L95.7914 7.512H94.2234L90.7674 10.888H90.7194V2.904ZM102.078 8.664C101.598 7.816 100.494 7.32 99.4539 7.32C98.0939 7.32 96.7819 7.976 96.7819 9.496C96.7819 10.92 98.0459 11.304 98.9259 11.512C100.35 11.848 101.134 12.168 101.134 12.952C101.134 13.928 100.302 14.264 99.3739 14.264C98.4939 14.264 97.6779 13.752 97.2939 13.096L96.4299 13.736C97.1179 14.744 98.2539 15.192 99.3899 15.192C100.766 15.192 102.206 14.584 102.206 12.872C102.206 11.704 101.374 11.048 99.6139 10.68C98.3819 10.424 97.8219 10.104 97.8219 9.4C97.8219 8.568 98.6219 8.232 99.4059 8.232C100.238 8.232 100.926 8.664 101.246 9.288L102.078 8.664Z" fill="#6B6C72"/>
</svg>
