<svg xmlns:xlink="http://www.w3.org/1999/xlink" xmlns="http://www.w3.org/2000/svg" aria-hidden="true" focusable="false" viewBox="0 0 24 24" class=" css-u5kp4s" width="16" height="16" fill="currentColor"><path d="M12.112 0L10.17 3.62c-.22.393-.615.357-1.009.136L7.756 3.03l1.048 5.56c.22 1.016-.487 1.016-.835.576L5.516 6.42l-.399 1.395c-.045.182-.247.374-.55.33l-3.101-.653.816 2.961c.173.659.31.931-.177 1.105L1 12.078l5.337 4.335a.699.699 0 01.243.726l-.467 1.534c1.837-.214 2.828-.531 4.667-.728.162-.017.434.251.433.439L11.038 24h2.078l-.07-5.604c-.001-.188.245-.468.408-.451 1.838.197 2.817.514 4.655.728l-.467-1.534a.7.7 0 01.242-.726l5.337-4.335-1.105-.52c-.485-.175-.349-.446-.175-1.106l.814-2.96-3.1.652c-.303.045-.506-.146-.551-.33l-.398-1.394-2.452 2.745c-.35.44-1.055.44-.835-.577l1.047-5.559-1.405.728c-.394.22-1.186.256-1.408-.138" fill="#D52B1E"></path></svg>