<svg width="81" height="18" viewBox="0 0 81 18" fill="none" xmlns="http://www.w3.org/2000/svg">
<path d="M9 18C13.9706 18 18 13.9706 18 9C18 4.02944 13.9706 0 9 0C4.02944 0 0 4.02944 0 9C0 13.9706 4.02944 18 9 18Z" fill="#D52B1E"/>
<path d="M6.99105 12.3001C5.95779 11.5543 4.9638 10.7577 4.01177 9.91435C3.6624 10.6819 3.34819 11.4686 3.06885 12.2718C4.58698 13.5599 6.61609 15.0348 8.00957 15.8649C9.81609 11.189 12.6328 8.13899 15.3304 6.01037C14.9838 5.27765 14.5145 4.61425 13.9477 4.0481C11.0735 6.25533 8.68918 9.06964 6.99105 12.3001Z" fill="white"/>
<path d="M26.816 7.512H24.704V5.4H23.616V7.512H22.064V8.424H23.616V13.096C23.616 14.744 24.736 15.096 25.536 15.096C26.032 15.096 26.432 15.016 26.816 14.872L26.768 13.928C26.48 14.072 26.128 14.168 25.824 14.168C25.168 14.168 24.704 13.912 24.704 12.792V8.424H26.816V7.512ZM34.5981 15C34.5501 14.488 34.5341 13.752 34.5341 13.352V7.512H33.4461V11.352C33.4461 13.352 32.3261 14.28 31.1741 14.28C29.6061 14.28 29.1421 13.224 29.1421 11.656V7.512H28.0541V12.104C28.0541 13.96 28.9981 15.192 30.9021 15.192C31.9581 15.192 33.0461 14.584 33.4621 13.72H33.4941C33.4941 14.04 33.5261 14.6 33.5581 15H34.5981ZM37.015 9.16V15H38.103V11.16C38.103 9.16 39.143 8.328 40.295 8.328C40.583 8.328 40.935 8.376 41.063 8.424L41.207 7.4C40.983 7.336 40.759 7.32 40.487 7.32C39.431 7.32 38.503 7.928 38.087 8.792H38.055C38.055 8.472 38.023 7.912 37.991 7.512H36.951C36.999 8.024 37.015 8.76 37.015 9.16ZM43.5326 13.736C44.1726 14.68 45.2926 15.192 46.3646 15.192C48.7006 15.192 50.2366 13.464 50.2366 11.256C50.2366 9.048 48.7006 7.32 46.3646 7.32C45.2926 7.32 44.1726 7.832 43.5326 8.808H43.5006V2.904H42.4126V15H43.5006V13.736H43.5326ZM49.0846 11.256C49.0846 12.92 48.0606 14.264 46.2526 14.264C44.5726 14.264 43.3726 12.968 43.3726 11.256C43.3726 9.544 44.5726 8.232 46.2526 8.232C48.0606 8.232 49.0846 9.592 49.0846 11.256ZM59.6081 11.256C59.6081 9 57.9441 7.32 55.6081 7.32C53.2881 7.32 51.6241 9 51.6241 11.256C51.6241 13.512 53.2881 15.192 55.6081 15.192C57.9441 15.192 59.6081 13.512 59.6081 11.256ZM58.4561 11.256C58.4561 12.936 57.3521 14.264 55.6081 14.264C53.8801 14.264 52.7761 12.936 52.7761 11.256C52.7761 9.576 53.8801 8.232 55.6081 8.232C57.3521 8.232 58.4561 9.576 58.4561 11.256ZM64.9254 7.512H62.8134V5.4H61.7254V7.512H60.1734V8.424H61.7254V13.096C61.7254 14.744 62.8454 15.096 63.6454 15.096C64.1414 15.096 64.5414 15.016 64.9254 14.872L64.8774 13.928C64.5894 14.072 64.2374 14.168 63.9334 14.168C63.2774 14.168 62.8134 13.912 62.8134 12.792V8.424H64.9254V7.512ZM70.9475 10.408C68.2115 10.408 65.6675 10.616 65.6675 12.92C65.6675 14.584 67.1235 15.192 68.2595 15.192C69.4595 15.192 70.2915 14.776 70.9795 13.784H71.0115C71.0115 14.184 71.0595 14.632 71.1235 15H72.0995C72.0195 14.584 71.9715 13.896 71.9715 13.32V10.04C71.9715 8.216 70.6755 7.32 69.0595 7.32C67.7795 7.32 66.7235 7.784 66.1155 8.392L66.7235 9.112C67.2515 8.584 68.0675 8.232 68.9475 8.232C70.2435 8.232 70.9475 8.872 70.9475 10.168V10.408ZM70.9475 11.256V11.816C70.9475 13.144 70.0835 14.296 68.5475 14.296C67.6995 14.296 66.7875 13.944 66.7875 12.872C66.7875 11.448 68.8515 11.256 70.6275 11.256H70.9475ZM73.1904 15H74.5024L76.7904 11.88L79.0144 15H80.4224L77.4464 11.08L80.1664 7.512H78.8544L76.8064 10.36L74.7584 7.512H73.3664L76.1344 11.128L73.1904 15Z" fill="#6B6C72"/>
</svg>
