<svg width="129" height="28" viewBox="0 0 129 28" fill="none" xmlns="http://www.w3.org/2000/svg">
<g clip-path="url(#clip0_713_56283)">
<path d="M58.6425 13.055H58.59V11.165H55.405V23.2225H58.695V16.8175C58.695 16.8175 58.87 13.8775 61.6875 13.8775C61.915 13.8775 62.335 13.93 62.685 14V10.9375C62.4575 10.885 61.915 10.815 61.74 10.815C60.445 10.8675 59.395 11.935 58.625 13.055H58.6425ZM36.295 7.82246H33.0575V11.1825H31.0625V13.825H33.0575V19.1275C33.0575 21.0175 33.53 23.485 36.995 23.485C37.6425 23.485 38.5875 23.31 39.06 23.135L38.9375 20.545C38.5875 20.6675 38.115 20.7725 37.4675 20.7725C36.5225 20.7725 36.1725 20.0725 36.1725 19.075V13.8425H39.06V11.2H36.1725L36.295 7.83996V7.82246ZM49.35 17.815C49.35 19.2325 48.405 20.755 46.76 20.755C45.465 20.755 44.765 19.81 44.765 17.8675V11.2175H41.475V18.69C41.475 21.1575 42.7175 23.625 45.9375 23.625C47.46 23.625 48.755 22.3825 49.4725 21.5075H49.525V23.3275H52.64V11.235H49.35V17.815ZM123.287 16.87L127.575 11.2175H123.76L121.292 14.6825L118.948 11.2175H115.01L119.298 16.87L114.468 23.2225H118.405L121.345 19.1625L124.232 23.2225H128.24L123.305 16.87H123.287ZM71.575 10.8675C70.0525 10.8675 68.985 11.515 67.935 12.5125H67.8825V4.58496H64.5925V23.24H67.7075V21.5425H67.76C68.53 22.785 70 23.6075 71.5225 23.6075C74.8825 23.6075 77.455 20.895 77.455 17.2025C77.455 13.51 74.9175 10.9025 71.575 10.9025V10.8675ZM70.9275 20.755C68.985 20.755 67.7425 18.9875 67.7425 17.22C67.7425 15.4525 68.915 13.6325 70.9275 13.6325C73.045 13.6325 74.1125 15.4525 74.1125 17.1675C74.1125 18.8825 72.94 20.755 70.9275 20.755ZM98.105 7.82246H94.8675V11.1825H92.8725V13.825H94.8675V19.1275C94.8675 21.0175 95.34 23.485 98.805 23.485C99.4525 23.485 100.397 23.31 100.923 23.135L100.8 20.545C100.45 20.6675 99.9775 20.7725 99.33 20.7725C98.385 20.7725 98.035 20.0725 98.035 19.075V13.8425H100.923V11.2H98.035V7.83996H98.0875L98.105 7.82246ZM85.4 10.885C81.6375 10.885 78.925 13.5275 78.925 17.185C78.925 20.8425 81.69 23.59 85.4 23.59C89.11 23.59 91.875 20.9475 91.875 17.185C91.8225 13.545 89.11 10.885 85.4 10.885ZM85.4 20.7725C83.23 20.7725 82.285 18.9525 82.285 17.185C82.285 15.4175 83.2825 13.65 85.4 13.65C87.5175 13.65 88.515 15.47 88.515 17.185C88.515 18.9 87.5175 20.7725 85.4 20.7725ZM108.29 10.885C106.4 10.885 104.475 11.655 103.18 12.88L104.878 14.77C105.647 14 106.942 13.475 108.062 13.475C109.235 13.475 110.408 14.07 110.408 15.47V15.645C106.995 15.645 102.585 16.065 102.585 19.6525C102.585 22.295 104.877 23.4675 107.118 23.4675C108.535 23.4675 109.708 22.645 110.478 21.77H110.53V23.1875H113.645V16.0125C113.593 14.07 112.875 10.9025 108.29 10.9025V10.885ZM110.46 18.1825C110.46 19.95 109.462 21.07 107.642 21.07C106.995 21.07 105.753 20.8425 105.753 19.775C105.753 18.6025 107.222 17.885 109.987 17.885H110.408V18.1825H110.46Z" fill="black"/>
<path d="M13.825 28C21.4725 28 27.65 21.77 27.65 14C27.65 6.23 21.4725 0 13.825 0C6.1775 0 0 6.23 0 14C0 21.77 6.1775 28 13.825 28Z" fill="#D52B1E"/>
<path d="M10.7625 19.1099C9.17002 17.9374 7.64752 16.6949 6.17752 15.3999C5.65252 16.5724 5.18002 17.8149 4.70752 19.0399C7.05252 21.0349 10.115 23.3274 12.3025 24.6224C15.0675 17.3949 19.425 12.6874 23.5375 9.32739C23.0125 8.15489 22.295 7.15739 21.42 6.26489C17.01 9.67739 13.3525 14.0349 10.78 19.0924L10.7625 19.1099Z" fill="white"/>
</g>
<defs>
<clipPath id="clip0_713_56283">
<rect width="128.24" height="28" fill="white"/>
</clipPath>
</defs>
</svg>
